<mxfile host="app.diagrams.net" modified="2021-02-27T20:18:19.864Z" agent="5.0 (Windows NT 10.0; Win64; x64) AppleWebKit/537.36 (KHTML, like Gecko) Chrome/88.0.4324.111 YaBrowser/21.2.1.107 Yowser/2.5 Safari/537.36" etag="2exC5C5oS_9KjlH4p8HE" version="14.4.2" type="github">
  <diagram id="Cod3GerfNrNgUSHNOhmU" name="Page-1">
    <mxGraphModel dx="1865" dy="552" grid="1" gridSize="10" guides="1" tooltips="1" connect="1" arrows="1" fold="1" page="1" pageScale="1" pageWidth="827" pageHeight="1169" math="0" shadow="0">
      <root>
        <mxCell id="0" />
        <mxCell id="1" parent="0" />
        <mxCell id="u7wA1UhLNrB0_62OL5z6-10" style="edgeStyle=orthogonalEdgeStyle;rounded=0;orthogonalLoop=1;jettySize=auto;html=1;" parent="1" source="u7wA1UhLNrB0_62OL5z6-3" target="u7wA1UhLNrB0_62OL5z6-9" edge="1">
          <mxGeometry relative="1" as="geometry" />
        </mxCell>
        <mxCell id="u7wA1UhLNrB0_62OL5z6-3" value="" style="shape=image;verticalLabelPosition=bottom;labelBackgroundColor=#ffffff;verticalAlign=top;aspect=fixed;imageAspect=0;image=data:image/jpeg,/9j/4AAQSkZJRgABAQAAAQABAAD/2wBDAAUDBAQEAwUEBAQFBQUGBwwIBwcHBw8LCwkMEQ8SEhEPERETFhwXExQaFRERGCEYGh0dHx8fExciJCIeJBweHx7/2wBDAQUFBQcGBw4ICA4eFBEUHh4eHh4eHh4eHh4eHh4eHh4eHh4eHh4eHh4eHh4eHh4eHh4eHh4eHh4eHh4eHh4eHh7/wgARCAPoBdwDASIAAhEBAxEB/8QAHAABAAIDAQEBAAAAAAAAAAAAAAcIAwUGBAIB/8QAFQEBAQAAAAAAAAAAAAAAAAAAAAH/2gAMAwEAAhADEAAAAZlAAAAAAAAAAAAAAAAAAAAAAAAAAAAAAAAAAAAAAAAAAAAAAAAAAAAAAAAAAAAAAAAAAAAAAAAAAAAAAAAAAAAAAAAAAAAAAAAAAAAAAAAAAAAAAAAAAAAAAAAAAAAAAAAAAAAAAAAAAAAAAAAAAAAAAAAAAAAAAAAAAAAAAAAAAAAAAAAAAAAAAAAAAAAAAAAAAAAAAAAAAAAAAAAAAAAAAAAAAAAAAAAAAAAAAAAAAAAAAAAAAAAAAAAAAAAAAAAAAAAAAAAAAAAAAAAAAAAAAAAAAAAAAAAAAAAAAAAAAAAAAAAAAAAAAAAAAAAAAAAAAAAAAAAAAAAAAAAAAAAAAAAAAAAAAAAAAAAAAAAAAAAAAAAAAAAAAAAAAAAAAAAAAAAAAAAAAAAAAAAAAAAAAAAAAAAAAAAAAAAAAAAAAAAAAAAAAAAAAAAAAAAAAAAAAAAAAAAAAAAAAAAAAAAAAAAAAAAAAAAAAAAAAAAAAAAAAAAAAAAAAAAAAAAAAAAAAAAAAAAAAAAAAAAAAAAAAAAAAAAAAAAAAAAAAAAAAAAAAAAAAAAAAAAAAAAAAAAAAAAAAAAAAAAAAAAAAAAAAAAAAAAAAAAAAAAAAAAAAAAAAAAAAAAAAAAAAAAAAAAAAAAAAAAAAAAAAAAAAAAAAAAAAAAAAAAAAAAAAAAAAAAAAAAAAAAAAAAAAAAAAAAAAAAAAAAAAAAAAAAAAAAAAAAAAAAAAAAAAAAAAAAAAAAAAAAAAAAAAAAAAAAAAAAAAAAAAAAAAAAAAAAAAAAAAAAAAAAAAAAAAAAAAAAAAAAAAAAAAAAAAAAAAAAAAAAAAAAAAAAAAAAAAAAAAAAAAAAAAAAAAAAAAAAAAAAAAAAAAAAAAAAAAAAAAAAAAAAAAAAAAAAAAAAAAAAAAAAAAAAAAAAAAAAAAAAAAAAAAAAAAAAAAAAAAAAAAAAAAAAAAAAAAAAAAAAAAAAAAAAAAAAAAAAAAAAAAAAAAAAAAAAAAAAAAAAAAAAAAAAAAAAAAAAAAAAAAAAAAAAAAAAAAAAAAAAAAAAAAAAAAAAAAAAAAAAAAAAAAAAAAAAAAAAAAAAAAAAAAAAAAAAAAAAAAAAAAAAAAAAAAAAAAAAAAAAAAAAAAAAAAAAAAAAAAAAAAAAAAAAAAAAAAAAAAAAAAAAAAAAAAAAAAAAAAAAAAAAAAAAAAAAAAAAAAAAAAAAAAAAAAAAAAAAAAAAAAAAAAAAAAAAAAAAAAAAAAAAAAAAAAAAAAAAAAAAAAAAAAAAAAAAAAAAAAAAAAAAAAAAAAAAAAAAAAAAAAAAAAAAAAAAAAAAAAAAAAAAAAAAAAAAAAAAAAAAAAAAAAAAAAAAAAAAAAAAAAAAAAAAAAAAAAAAAAAAAAAAAAAAAAAAAAAAAAAAAAAAAAAAAAAAAAAAAAAAAAAAAAAAAAAAAAAAAAAAAAAAAAAAAAAAAAAAAAAAAAAAAAAAAAAAAAAAAAAAAAAAAAAAAAAAAAAAAAAAAAAAAAAAAAAAAAAAAAAAAAAAAAAANMbnWwxw5OOoiQWd2sDTyAAAAAAAAAAAAAAAAAAAAAAAAAAAAAAAAAAAAAAAAAAAAAAAAAAAAAAAAAAAAAAAAAAAAAAAAAAAAAAAAAAAAAAAAADlTxwXjxgACwdfN8WUfH2AAAAAAAAAAAAAAAAAAAAAAAAAAAAAAAAAAAAAAAAAAAAAAAAAAAAAAAAAAAAAAAAAAAAAAAAAAAAAAAAAAAAAAAAYq0ytCQAAABMknVYswe8AAAAAAAAAAAAAAAAAAAAAAAAAAAAAAAAAAAAAAAAAAAAAAAAAAAAAAAAAAAAAAAAAAAAAAAAAAAAAAAAAAAAAAAFf+N2GvAAAAEix1+lsXNdKNBv8AWHHoY85N6EBN6EBN6EBN6EBN6EBN6EBN6EBN6EBN6EBN6EBOGwr+LSe6p/Zk+ud6IAAAAAAAAAAAAAAAAAAAAAAAAAAAAAAAAAAAAAAAAAAAAAAAAAAAAAAAAAAAAAAAAAAAAAAAAqnhzYQAAAADp7FVOnAkIEVxDa2tZpgAAAAAAAAAAAfcwQ4LZIyk0AAAAAAAAAAAAAAAAAAAAAAAAAAAAAAAAAAAAAAAAAAAAAAAAAAAAAAAAAAAAAAAAAAAAAAAqnhzYQAAAABsdcLUeqHphHFdqKmuz4wAAAAAAAAAAAA+7IVs7sncAAAAAAAAAAAAAAAAAAAAAAAAAAAAAAAAAAAAAAAAAAAAAAAAAAAAAAAAAAAAAAAAAAAAAAFU8ObCAAAAAAZLJ1o7IsADSVstdD5Fp9nw7DrCI07ZSBE38+Rg3mjAAAAAAAGTGLVejlupAAAAAAAAAAAAAAAAAAAAAAAAAAAAAAAAAAAAAAAAAAAAAAAAAAAAAAAAAAAAAAAAAAAAAAKp4c2EAAAAAAAnztqy2VMvm9Ih2TtoB4T3OTwnZOe3x98l1orjzdsIhItAAAAAABPfb8R24AAAAAAAAAAAAAAAAAAAAAAAAAAAAAAAAAAAAAAAAAAAAAAAAAAAAAAAAAAAAAAAAAAAAABVPDmwgAAAAAACXYinM78Dk+Qik6zk/wAAD2eMSlKtWNsWcaHfEURJbKBDiAAAAAAT32/EduAAAAAAAAAAAAAAAAAAAAAAAAAAAAAAAAAAAAAAAAAAAAAAAAAAAAAAAAAAAAAAAAAAAAAAVTw5sIAAAAAAB11hOL7QRb3FazGAAAADY2Pq/wB4Ttq9oKpYpBj4AAAAAnvt+I7cAAAAAAAAAAAAAAAAAAAAAAAAAAAAAAAAAAAAAAAAAAAAAAAAAAAAAAAAAAAAAAAAAAAAAAqnhzYQAAAAAB6vL1pYL7CGYz3OmABKBxu1n8VV89nq5mtA/fwWc20cSOcTAdoqugAAAAE99vxHbgAAAAAAAAAAAAAAAAAAAAAAAAAAAAAAAAAAAAAAAAAAAAAAAAAAAAAAAAAAAAAAAAAAAAAFU8ObCAAAAAAJAj+QCcgVP+fr5APq1FV7TnpAieWImImABKcvxBL4qha+qB8AAAAAnvt+I7cAAAAAAAAAAAAAAAAAAAAAAAAAAAAAAAAAAAAAAAAAAAAAAAAAAAAAAAAAAAAAAAAAAAAAAqnhzYQAAAAAB1vJeotQ+PsrPpZNjIASbGQtj+1n2pNldfLgAB+k1yNqtqa+rs+QGAAAAAT32/EduAAAAAAAAAAAAAAAAAAAAAAAAAAAAAAAAAAAAAAAAAAAAAAAAAAAAAAAAAAAAAAAAAAAAAAVTw5sIAAAAAABP/Z17sIaetVrYwIcAAAAA77lLHmwNWRHHuXEAAAAAT32/EduAAAAAAAAAAAAAAAAAAAAAAAAAAAAAAAAAAAAAAAAAAAAAAAAAAAAAAAAAAAAAAAAAAAAAAVTw5sIAAAAAAAnSC/SWpc70RFMSWx5crq7HkD5APeeDcd9KZrN4CBOkiQAAAAAAnvt+I7cAAAAAAAAAAAAAAAAAAAAAAAAAAAAAAAAAAAAAAAAAAAAAAAAAAAAAAAAAAAAAAAAAAAAAAqnhzYQAAAAAAAD2TvXz9LYoVlc2fk9Y5fz9gNFvP0AfMRaDiwAAAAAACe+34jtwAAAAAAAAAAAAAAAAAAAAAAAAAAAAAAAAAAAAAAAAAAAAAAAAAAAAAAAAAAAAAAAAAAAAACsGs7jhwAAAAAAAAB9/A7HrIiE7ZYEE497VGYSUQR1CVsa5HNgAAAAAAnvt+I7cAAAAAAAAAAAAAAAAAAAAAAAAAAAAAAAAAAAAAAAAAAAAAAAAAAAAAAAAAAAAAAAAAAAAAA4OCbYVwOeAAAAAAAAAAAA9PmFodjB84DmOnFTvyQo9AAAAAAJ77fiO3AAAAAAAAAAAAAAAAAAAAAAAAAAAAAAAAAAAAAAAAAAAAAAAAAAAAAAAAAAAAAAAAAAAAAAGh3wqv5bGQKa0AAAAAAAAAAAH7YqunSFjn5+murPamLiHgAAAAAT32/EduAAAAAAAAAAAAAAAAAAAAAAAAAAAAAAAAAAAAAAAAAAAAAAAAAAAAAAAAAAAAAAAAAAAAAAAPH7BDkdWoxFUliNQQcmoQqmoQqmoQqmoQqmoQqmoQqmoQqmoQqmoQqmoQqmofci8L3Qx5BWjSWAr+AAAAD6LCdZ4/YAAAAAAAAAAAAAAAAAAAAAAAAAAAAAAAAAAAAAAAAAAAAAAAAAAAAAAAAAAAAAAAAAAAAAAAAAAAAAAAAAAAAAAAIDnzTlZWXEAAAOw4+wx1gAAAAAAAAAAAAAAAAAAAAAAAAAAAAAAAAAAAAAAAAAAAAAAAAAAAAAAAAAAAAAAAAAAAAAAAAAAAAAAAAAAAAAAAAIiiq1VaDWAAEkGaZPz9AAAAAAAAAAAAAAAAAAAAAAAAAAAAAAAAAAAAAAAAAAAAAAAAAAAAAAAAAAAAAAAAAAAAAAAAAAAAAAAAAAAAAAAAAHA98KmpfzENbucelOG7oAAAAAAAAAAAAAAAAAAAAAAAAAAAAAAAAAAAAAAAAAAAAAAAAAAAAAAAAAAAAAAAAAAAAAAAAAAAAAAAAAAAAAAAAAAAAAAAAAAAAAAAAAAAAAAAAAAAAAAAAAAAAAAAAAAAAAAAAAAAAAAAAAAAAAAAAAAAAAAAAAAAAAAAAAAAAAAAAAAAAAAAAAAAAAAAAAAAAAAAAAAAAAAAAAAAAAAAAAAAAAAAAAAAAAAAAAAAAAAAAAAAAAAAAAAAAAAAAAAAAAAAAAAAAAAAAAAAAAAAAAAAAAAAAAAAAAAAAAAAAAAAAAAAAAAAAAAAAAAAAAAAAAAAAAAAAAAAAAAAAAAAAAAAAAAAAAAEeeWGjqvN0+5NfK1cZvOqA4Dv62H1KcJbssgB4vbryv3Vxn9FsGo2hHkaePVFhet4jtxBU61pPW+5FI36fodmdgCMeC6eOze5pC1J6pPqbPJ3IGo28PHH9VHeMte1mzAAAAAAAAAAAAAAAAAAAAAAAAAAAAAAAAAAAAAAAAAAAAAAAAAAAAAAAAAAAAAAAAAAAAAAAKz7nn+pidhXx9gByNfO21ZJ0HWWr4Tt1MFzoNfsNeVd22pmI1PTQptTFqJjhwnvt+I7cVpstWkz95GvRx0/YxPJFdkCG+C72NYtdirzrq18vRPY824PPWGXYZJiief4wN1LdXbPGQAAAAAAAAAAAAAAAAAAAAAAAAAAAAAAAAAAAAAAAAAAAAAAAAAAAAAAAAAAAAAAAAAAAAAAEMRxaeFTqN1X/4O/lqEpsN1qNvDpGP36LQFWPm12vKw2drDK5LGv2GvKu2LrpYshnR2E1x1lV7ZVNJ77fiO3FabLVpN9MVYxZzLV7pyxYIbjuROCiXorsvw1R/PNTZ9O1OPIa0vxYgr6tYKmznGP2WKAAAAAAAAAAAAAAAAAAAAAAAAAAAAAAAAAAAAAAAAAAAAAAAAAAAAAAAAAAAAAAAAAAAAAAABg+PUAGPIMeQAMX7kAGLJ+gBiyj8/QY8gxMoxfuQAfHzlAGL6+w+PsYsoAfHzlAAAAAAAAAAAAAAAAAAAAAAAAAAAAAAAAAAAAAAAAAAAAAAAAAAAAAAAAAAAAAAAAAAAAAAAAAAAAAAAAAAAAAAAAAAAAAAAAAAAAAAAAAAAAAAAAAAAAAAAAAAAAAAAAAAAAAAAAAAAAAAAAAAAAAAAAAAAAAAAAAAAAAAAAAAAAAAAAAAAAAAAAAAAAAAAAAAAAAAAAAAAAAAAAAAAAAAAAAAAAAAAAAAAAAAAAAAAAAAAAAAAAAAAAAAAAAAAAAAAAAAAAAAAAAAAAAAAAAAAAAAAAAAAAAAAAAAAAAAAAAAAAAAAAAAAAAAAAAAAAAAAAAAAAAAAAAAAAAAAAAAAAAAAAAAAAAAAAAAAAAAAAAAAAAAAAAAAAAAAAAAAAAAAAAAAAAAAAAAAAAAAAAAAAAAAAAAAAAAAAAAAAAAAAAAAAAAAAAAAAAAAAAAAAAAAAAAAAAAAAAAAAAAAAAAAAAAAAAAAAAAAAAAAAAAAAAAAAAAAAAAAAAAAAAAAAAAAAAAAAAAAAAAAAAAAAAAAAAAAAAAAAAAAAAAAAAAAAAAAAAAAAAAAAAAAAAAAAAAAAAAAAAAAAAAAAAAAAAAAAAAAAAAAAAAAAAAAAAAAAAAAAAAAAAAAAAAAAAAAAAAAAAAAAAAAAAAAAAAAAAAAAAAAAAAAAAAAAAAAAAAAAAAAAAAAAAAAAAAAAAAAAAAAAAAAAAAAAAAAAAAAAAAAAAAAAAAAAAAAAAAAAAAAAAAAAAAAAAAAAAAAAAAAAAAAAAAAAAAAAAAAAAAAAAAAAAAAAAAAAAAAAAAAAAAAAAAAAAAAAAAAAAAAAAAAAAAAAAAAAAAAAAAAAAAAAAAAAAAAAAAAAAAAAAAAAAAAAAAAAAAAAAAAAAAAAAAAAAAAAAAAAAAAAAAAAAAAAAAAAAAAAAAAAAAAAAAAAAAAAAAAAAAAAAAAAAAAAAAAAAAAAAAAAAAAAAAAAAAAAAAAAAAAAAAAAAAAAAAAAAAAAAAAAAAAAAAAAAAAAAAAAAAAAAAAAAAAAAAAAAAAAAAAAAAAAAAAAAAAAAAAAAAAAAAAAAAAAAAAAAAAAAAAAAAAAAAAAAAAAAAAAAAAAAAAAAAAAAAAAAAAAAAAAAAAAAAAAAAAAAAAAAAAAAAAAAAAAAAAAAAAAAAAAAAAAAAAAAAAAAAAAAAAAAAAAAAAAAAAAAAAAAAAAAAAAAAAAAAAAAAAAAAAAAAAAAAAAAAAAAAAAAAAAAAAAAAAAAAAAAAAAAAAAAAAAAAAAAAAAAAAAAAAAAAAAAAAAAAAAAAAAAAAAAAAAAAAAAAAAAAAAAAAAAAAAAAAAAAAAAAAAAAAAAAAAAAAAAAAAAAAAAAAAAAAAAAAAAAAAAAAAAAAAAAAAAAAAAAAAAAAAAAAAAAAAAAAAAAAAAAAAAAAAAAAAAAAAAAAAAAAAAAAAAAAAAAAAAAAAAAAAAAAAAAAAAAAAAAAAAAAAAAAAAAAAAAAAAAAAAAAAAAAAAAAAAAAAAAAAAAAAAAAAAAAAAAAAAAAAAAAAAAAAAAAAAAAAAAAAAAAAAAAAAAAAAAAAAAAAAAAAAAAAAAAAAAAAAAAAAAAAAAAAAAAAAAAAAAAAAAAAAAAAAAAAAAH//EAC4QAAEDAwEGBwACAwEAAAAAAAUCAwQAAQYQExQWMDVwBxESFSAzQCE0IiPAoP/aAAgBAQABBQL/AJ8uZPhw7SMsHIpWZW8xU1shB7bFCcQc0VyWdLq973vph5Lc5/bXIzrY5Mh92Q98cVJe4Du2eSFkjIbq1uufIEQUNIoUlaO2LziGmjE5ZGfyMHJbRntjnUzYwOTDkORZQ+U3Nh9sMxkbc5ysKJbvL1MFWRaeLhtcXDa4uG1xcNri4bXFw2uLhtcXDa4uG1xcNri4bXFw2uLhtcXDa4uG1xcNri4bXFw2uLhtcXDa4uG1xcNq2XDaZyYQ5UaXFk27JknNqQ5Vr3tfHCNiQ7QpDbnwZLLkd/8AOm90qG5KQiXEGYZK3ZF77uXjRH24jb+baZyN9Sf0oUpCsbyPbX7IPfdzMKJbzD0dbQ60ZgrHEP1Yeau/bse993MGy3IM2K+3JjaZcN34f+ptam1gSFiQ7sc993Nwcl6HNctG7gQ/VhU3dinY577ua2tTbgSekiP0NwEkR7iFNufpaWpp2M7Z+N2Ne+7nYmS3AhrnI30OUhKlqhY2Uk1Hw5NIxQWmuFhNO4iPvUnD37VOEkIX4sUc2oDsa993PxAlvo/SUw3JjwcSdVIgD4cFHzKY+PnUYCzBt+fhPQuxr33c8NOWOIMuIea+MmZEjU5kYdF+Jg9MGxT1IUladFJSpOR43s7c7COhdjXvu/BgxLzTqYPQx1EchJTKvfzvrFlSYqxWWOJvEksSmdMuB+dubhHQuxr33fgw8TukXTJcjv58gYQkjnwpNgnG0y0VuEvmYR0Lsa993PxUfv5PTMjN2+WOmPQJY2Y1Ph0VhonwHW1NO8vCOhdjXvu5+HQ91D0bnJHjnFqcc5eGEd1IaZzD2BLl4R0Lsa993OiM3kSkJshFZ7L9cv4wRBGalzGS6UyGHo7nwte9rh5W+jKzSPtgnLwjoXY177udiLW1P6HHt4L/AAxAIh9OhOBGIRycN2BN+GAvesdRNrbDuXhHQuxr33c7A7eZnRV/UrVNvNUZpLEfXxBYt5fDw+V/v0Xb0r5WEdC7GvfdzsDv5GdFWulWqb+SoryZEbXxAft8fD5P+/Rd/UvlYR0Lsa993OxF3ZH9DrO7mPhiJtEZNr2vaihGMOjkpjs6Z8MCZ9A2iTuxHcvCOhdjXvu50R68eUhVlorPYnolfGCVIQrOZIXWl9519z4JtdVxEXchtZpI2ITl4R0Lsa993Pw+ZvQejMJJAc62tp3l4YO3qfpnMzbkuXhHQuxr33c/FCG4E9MyDXetyhkJ4hLHRGoMSisxECA84t13l4R0Lsa9934MPLb5F0yXHLqVe17X+YsdKIvhhkcZH0y0rv8AL5mEdC7Gvfd+CK+7GfBFWSkXQwDhEaI44SiXVa6VaxIcqWoViSvOMwzGZ0y455W5uEdC7Gvfd+GHJfiSAJ2OSTrIixpFnMfDrpONB7UwHFs3taybaKUlKcjyTaW52EdC7Gvfd+K172uHyl9ioE+HORyMoIEXZvPwjoXY0q3sif5EKUhUPJCkeo+YopGVi1VxSJpeWjbXbWlxvTNhu8ROfhHQuxuax9ia/Vg5L1t6Xta9siHXGkedhHQuxuawt5F/qivuRpI2W3OhaZKO9xHX/i/NwjoXY1VrKTkA5Q0h+rCiW7TNc0G7tM5uEdC7HHBrZOFLjuxZH6bfxfGiPuI7QlEbnQpTDkaTzMI6F2POh2CjJGDJgP8A6ccI3GkbXte2mcjfW3zMI6F2QmRY8xkpibyKkx34y/0YSS3iLo4hLjZuAocQ5eIt7PH+yTrbbqJGPCXqViQ29cIQq4QhVwhCrhCFXCEKuEIVcIQq4QhVwhCrhCFXCEKuEIVcIQq4QhVwhCrhCFXCEKuEIVcIQq4QhVwhCrhCFUDGo8KXrlg3fx/KTa6lQWd2h9sMvG7iQ5OIw97MdsTMFBEe82tp3kYuN9uG9ss5G+Svnhwbar7ZyWW5DBSG5AnfHG8dXIum1k27aZmN3uDqOFTp9wuNxYV+28nEEuSmcPjWqGBFxat/Fv8Ax9mcnYirkZCWeu2bLN3G5a6m8SSxLY1zIm7Cj+9lqw0m5Njaz1KRB97LVixuUsppmZV2Hb3stWJyH5QjQwaKMlffy9e/l69/L1i5YjLMaZkRmwpPv5evfy9NZGYRcRlaHV/AxMtBG+9lqxc3KWV7IZqVUyihWKvyG5GHs+icMmQ5eNC/bIWuQTd/K3Zcsxjs3cC2pPptJVdKg8y08c4tLaC0tU4hWEdC0P8AWsYHMk5/CI2uERtDMehD5mniB/cht2el8IjaJYkhLFYVLVJE657N9T7TTjtIUpCxUtM4f2POPXkGMOiJlGdFIQq+uWTdzEWt53ICPLE6xabvojQn02psO7EXBJ2zlZvO3ccHh3nkawjoWh/rWPErC5vGLdcYt0CKJKx9PED+4M6lTziGWnlet7w/Re0TSS6iPHmyFypeEj0+2z46okzApv8Al2PKt3aJ4O+loz8szm70WxxMe5b3cXRRtlohhM3dyehPptWg79hEd1bD5wgokQwOD6GKwjoWh/rQyBIIv8LFq4WLVig+SOh6eIH9xtam3Pfy9TCU6YmHGfmSA8JI8fpnc3ZQ0W9S4ZARGi5neG9NHSlQ5zS0uN9js5H3blNrU24JyqM40/kghpE7KJrswORZJRKMzLQBqr3Uqza71s3KuhdrNrU24NlJmwKJ9NrFegZLB3AtFZXJkxGERYtYR0LQ/wBawl9mOV9zG17mNpqfBdc08QP7kNuz0vhEbRyAoaRw8laFP1PTd/KJSpVbNytm5phE3eBnY6Qy3IZM4zKjLWlSFULAEJ1xI2MNj1ns31PwY6pcxltLTVEoyZkBxKm14FN/iifTaxXoBwOyVSIx2OOmaYR0LQ/1rXFev6eIH9wZ1KsyH72OrEim/wAGsum7mIrFYe5h9Mmh7kYxebuRfsg6y07TUaO1fW6EXvZCLX12bdWQi19Nm3VrWtbXZt1a1rW0u23etm3WzbrZt1ZCLX0UlKq2beuzbpKEp0UlKq2bfwUlKq2bf/Sg/wD/xAAUEQEAAAAAAAAAAAAAAAAAAADA/9oACAEDAQE/ATkX/8QAFBEBAAAAAAAAAAAAAAAAAAAAwP/aAAgBAgEBPwE5F//EAEcQAAECAwAKDwYFAwUBAQAAAAIBAwAEERASISIxQVFhcHEFEyAjMDIzNEByc5GSodEUQlKBscFDYoLh8CRTkzVjg7LAoPH/2gAIAQEABj8C/wDPl/1My23mVbvdFGgee1JRIvdj1X/m/aAmm7lthH4VyaN7eYcurxQTjLCgwvszX5eN3xVVqtn2dwt5fuaixLo22hmjk0qYMQa4J59wnDLCq7pEcXf2b08+RdGl7RZhy42n3gnHCUjJaqq492D/ALnFcTKMIYLUSSqKmjInXFoAJVVhyZPAtwEyJwK7HOlfN3W86ZNGQSgrfPrfdVOCbmGloYLVIbmWuKad2jFwcTSICcH7C6W9PLe5i/fcAb7TxCa0qCJ6xyM34R9Y5Gb8I+scjN+EfWORm/CPrHIzfhH1jkZvwj6xyM34R9Y5Gb8I+scjN+EfWORm/CPrHIzfhH1jkZvwj6xyM34R9Y5Gb8I+scjN+EfWORm/CPrHIzfhH1jkZvwj6xyM34R9Y5Gb8I+scjN+EfWORm/CPrHIzXhT1i68bfWBYrLzDTvVLQpMO/E6S+fB1RaKkC4q78F65ry2XJVzASXFyLlg2HUoYLRekWwqqKmNIQXS9pbyHh74o0dq7jbLDoSPrLwgmS7y5euesVSymyTQ3UvXfsvSkICUSTAqQMpsgVHMAO/Fr0In1l4X2N0t9YS9zjZJpwbYCSipDksWDCC5R6Wmx82dXE5I197NoQPrLwrcy1hBcGVMkNzDS1A0qlnbWx39i6mdMadLEwJRIVqipigH/wARL1xM+g8+svDLsc6V6d81rybjbGxow9fDmXGnS/ZyXe5i9/Vi0Hn1l4YXAK1IVqi5ICYTjYDTIVk5deNhBchQTZpakK0VOlC4C0IVqkNvjgcFCT56Dj6y8PaOLRh69PMuJdwmyLSXpXruvEthBAVIlwIkVVlGByurTyjf51VzAEXVmD1nHFd8cXj0wC60X7RWWm2zzGNrCq/LHap7yXU6FLKuFEUe5dBx9ZegbS4W/sXFzpiWybDqVA0osF7W9asiVy04xJ9otZZgQz41+fAKVptDvxt/dIq4NuzicHB+3QB7QtBx9ZegNzI4EuGmUYF1srYCSqLuv6iZaa6xRT2u21Asc4L/ABrF5PNfqvfrFsBISLjSyokiEK4UWCmtjhVRwk1k1cOPaFoOPrL0FdjXVupfNfdNwrdduf8A7Y4tcKm27Q38Ldzziq7i2l3zaX8qwjeyDdun9wMPdCPS7ouAuNLJbISYZ3QT/tww9oWg4+svQfa3h391Ln5RslKbHHTEbyfb14HbZc6fEOIo2xu9NOOGMbO3Mj/TvYPyrk4Ue0LQcfWXoCW6VZavzz5EsrsdLFfLyxJizcGMwwVCTFiVMkBMs4CwpkXJYclj95L1ciwTTiUMFoqcIPaFoOPrL0AHFS/fv11YrDkyvGwAmUoJw1tiJaquXhPZTLen7mosVkZkUvX0u9ZP4nCD2haDj6y8O0wmFw0HvhAFKCKUSw1Jit62lsWtf557q2YliUPiK4kVRkDzIaQrb7RNmmIk3NUwwxM4yG+147BOe8ySH9uEHtC0HH1l4eXyDUvKzNO5XFRNSXE3KT82NsFd7BceeyrMwFfhLGOqDlncI4Fypl3LzH9tyvf/APliYa+Jok8uEHtC0HH1l4c1yMqvmllVXHuERMcNsBxWxQU3ErM0u3QX7ffczYZRFfrZUci8GPaFoOPrLw5plYVPNLKiuFNwipiht8OK4KEm4lZZMN01+333M2eQRT62VLKvBj2haDj6y8PL5CqPlZmmv9xVTUt3c+wzhWrVd7NfdzRVFqlhXZg+qGMoOZe4xYsiZNy88v4jnkliYd+Bol8uEHtC0HH1l4dp8cLZoUIYrVFSqWGp0UvXEtC1p/PLdWsvNGI/Ct1O5Yp7Sg6gSFcecJw1xktdyiIlVWGJbGA3deOwTfvPEgffhB7QtBx9ZegACrfsXi6sVhyWXCt0FyLBNuDamK0VOE9rcTemFrrLFZGWFb1hLvWXhB7QtBx9ZegJbrRl68PNkWyuyMsNTRN9FMaZeDGXYS6uFcQplgJZlL0ceVcthyZP3UvUyrignXFtjNaqvCD2haDj6y9B9keLf2kufmGyU5seN3CbKfb0ii3F4Da5cLnvGuAY2tm6S8c1wlZ2lkv6dnB+ZcvCj2haDj6y9BB9krUwWqLFuNBeHlAyWbch2p7+4H3ywqg37Q38TeHui1JFRUxLuLWWl3HNSXIRzZFyif2w+6wjLDYtgmJLJbHyZ5nTT/rww9oWg4+svQhflzUDGEbKjUzjDLq3G/sNO9YaxdkhTUSpHNlX/kKKhIs/qS2+sURERLKkSoiJhVYKU2OKg4Cey6uHHtC0HH1l6HVFoqQjU8Kvh8acZPWLaVfE82NPlwLspMrtbYFcbHAuRc/QB7QtB0y38LpfXoqEBKJJgVIRFdR8cjiV843+SJM4HWLqPjrCOO74IoLcwX6U9YFwFthJKotlJ5od8Z4+cf26APaFoOJyl68KF9ulrsc6V8N1rVks0VKosE2ib0d82ubJw49oWg7bwSpy6236cfSwmGloYLVIbmWsBpgyLkskIpvzd836RReGHtC0HKJJVFuKkE1+EV82ubpfsbpb0+t7mLce2NDvT632YuGHtC0HqyVw0utnkWDYfC1MFoqdKqkCZLvzd65ry2XJZzAaYci5YOXdShgtF4Ue0LQhdvHx4jnrG0zLdquJcS6ulC4vJHeuJmyxVFqi2U2RaG+G9d1Yl4Ue0LQirMy0LgZ4U9j3NtH+2dxe+LSYZNoshJTpKyLpb4yl5nH9rJNmlsJJRUg5deLhBco8JL196peehO0dATHISVivsqAv5FVIuOzI/qT0jnMx5RzmY8o5zMeUc5mPKOczHlHOZjyjnMx5RzmY8o5zMeUc5mPKOczHlHOZjyjnMx5RzmY8o5zMeUc5mPKOczHlHOZjyjnMx5RzmY8o5zMeUc5mPKG5lmamLcFzXdxbtjv7N8OdMacGiJdVYZl0/DBB0Y7c2O8P3UzLjTgmyVLxnfC+2jJyWLCt0FyLBNODamC0VOBTbEo+7fOZs2jNNkmkuLeu/ZeAHZGZHex5IV95cujQ2HUqBpRYclnPdW4uVMu6GanhUGcIguE/2hBFKImBNGvtTY78wneO4/p2CtfjW4MI7Mf1D+fijo4M2ptGmiWqDtdbXzjfpt0+qKDFRlRMsrl9FE/+PxWZMUfcTCXup6xzpQTICUiqTzv6rv1hAn2kMfjbuL3Qj0u4jgLjTcNMyzig84tapiGOfOw6zMuKbza1quNF3EwYrQhbJUX5Rz52BYnJgnAdS1G2xFistS0q6rbpX5KmJI587COzDiuHbqlVszLTU2QgDioKUSOel4UjnpeFI56XhSG2ZiZI21QqpRMllgZV9W0IFVbiRz0vCkc9LwpHOrbMQJCNT7YtKv4g8X57l6ZxiN7rxRz52BYnJgnAdS1S2xFi0IpsewVDNKuLkTJYR2cd2hFwAiX37RvE24hfnSqQks6ytuXEtbqHqihrV5y65kTNuHX0W8rah1UgX1HeyJRRc6Q06q0bW8PUu4mexL6WEIVoqXUhmZTCSX2ZccEZrQRSqrD0yXvLepkTFYHtCsznbFBsPk4Io0p3i509Y5ab8Q+kctN+IfSBmmXJhTGvGVKfSzLdmv1hloq0M0Faa45ab8Q+kEci+4RilbRz3rG1GtSYK0+WLcNSALcC/PXi/meD2sba0G3LMkIYrQhWqLDM0PvjdzLj0ITTqrXfFRNSXEgVNKiyO2fPFZFSFFUVqNUwbg0Fd8e3sfvFEhJVB31kds/Vj+9htSWrje9n8rMz2JfSxKTKcR8K/NFg5E1vXb4Ot/PpCSoLfv4erDMsmAlvsyY7A9oVmc7YoOYJpXbZu0pWmNPSOYF/k/aOYF/k/aDeFlWrUrWla2Zbs1+sS3bD9bBOuEggKVVVgzRKIRKsTLmIjRO5P3sm+4tAAbZYdmHOM4VYffeGvtF5+mHZY8LZUh2QNcO+B99CE02vuul9YVsvxW1FNeHdqyK73L3ia8f8zQ0c06DbTd+tuuGmCOfy/jh4JdwXGba8UVrcj2YlvJhKfqxWZnsS+lhkRSrjYqYfJVgHm1oYFbJBTCpQaWoDkSHJ80uuXgasf8zWB7QrM52xQrMsgqaDbXVpcjiNeOOI144damUFCJy2Si1xWZbs1+sCYLQhWqLHPS8KRazM044Pw1uQLEu2pmsNywrVR4y5VshJAt88tS6qQg1RKrhWG5dufl7VsbVL9IbmpSYadtxodqVbqfzyhmZDC2VdaQLgLUSSqLoPTZAEvHLh5igXAJRIVqipigQn6tOphNEqKxVJhXF+EAWAcl95aBeJhttcI+1cXAYYxWw9M4xS914oUiWqrhiqAXdHJl3RVQJPlAuAtCFaosMzQ++NdS47Ez2JfSxK9VfqsOtilGzvw1LDbDfHcK1SG5dvitjapYHtCsznbFDhvvNtDtCpUypjSP8AUJT/ADDH+oSn+YYRtqclzNcAi6iqtmW7NfrDLRVoZoK01xy034h9IOWuqOEFXGkbQ7cafuVyLi3Dz9bytqHVSL0VX5RyZd0cmXdYWWJb+XWn6VwaDyZeBDA0oqLCuSSLMM5E4w+sWpioqmJbCLtasNfG4n2jamBurxjXCVhqQBbgX568X8zw1LBhcKkA0CUEEtUSw9LF+INPniggNKEK0VIekDX/AHA+9iZ7EvpYleqv1WG9sMmybwEkJNI8bpIlBtkwWR7QrM52xbiV6y/RbMt2a/WJbth+tjb2031i+1jjsbU6W/s3F/MmJbBiK0cevB+9hpFS/d3wvnZeBEoB34alholXe3N7P56Ed9aA+sNYq0w0C/lBE3FVAV+UVQBT5bjiD3RVAFPlZ5Me6KIlNxyY90URESzdAe6OTHujkx7o5Me6KoAp8rN8KL8o4g91nkx7ovRRPlYvhRdccmPduL4UX5RyY93/AKUH/8QALBABAAEBBQYHAQEBAQAAAAAAAREAITFBUfAQMGFxgZEgcKGxwdHxQOHAoP/aAAgBAQABPyH/AJ8ueI6kW0+osx9Zn0oNhOMKnrGxNKN/lussixPJPmlpKuHaOP0imbktVZXbd6YatmoO2Xls6uZK0M/pTYCldvitxYMwfL7j5aWiyicM3wKUopa1OPjIcrsOJf1L+lG9IuRG58sgcsuwC1qSASTh3GsZ3N31LvV6Pbl5ZPDUmGi1js7r8M53Jup/r3GbE6PliwzPbqX1Xdz0K8deTnHga3wPA5MjQ/z1atWrVq1atWrVq1atWrVq1atWqlCHi11AddaJrjpgSnM8lEeZ9ZW7JuRIjaNCauPRff322Avsi7qkd+fE/oHWlhISooLe/pv95qw6ibH05nLyS1DPeK5XHww6PukAgjaJtw2kTE0Hb+pSkyiEaj8TIHBkeOPkjqGe9lploPT7XdtpKE3YjfU4CWTjXPxzP61ADtFoMXE9ffyP1DPe4g0ZWY3UVEj99Y7ZycDHfrE5cf6wrEWhRc1ZQLA4H4b+vkfqGe+v/hRbsfVf++CVtBhu1D1/rUYIWG4F73OvkfqGe+aEIa9FzUXpd+Bf99dsH5f+Fd9dafus68S8/qhGO+SMlelpUJ8jtQz38PYTJdqOj4L09AC75F3bPZYlIBK0EMGYfL0oIPKl6r8UZ2y+Ar9PQfakoW8Sj1E0cCwv1y7r/E6S1HVD0jyO1DP+CGlAT36w/dsh/wA6hmYDalWOXqq4T4YzzlbuABmYES9h9+NWn0x7tm/g1zPyO1DP+CUFaDjXmsaG0GbEfEbaWQj2q8A4/wBYok0valwAud+KhlwpJHaTcIBIlQ+HNvFw8N/oGfkdqGf8OPWq5aXv4J4gYvqYe/CmBmfuvNIiKt6+DPWspPMxoQV3FA53HpFYjIm7g5PDacGJY1+Y+e++0DPyO1DP+Eiv/KW4Rzb3ptsfBaNrw1cM6VVVlb3cFX5i6ySh73N20+TJ2NpDQnAZSXYvJif5vdAz8jtQz/gO75lu+w+g7SI8OAOHnju55xt6kuFPdZWl+Mtkex0Huabyy7BGHeaBn5Hahn/AUJNP6Pa3rsgcQcYXffSmxrOvTe7xDhPeuxXW7ttCHpfYPp7t5oGfkdqGe/srwblKKj9AGQbFu8d2ux4hh8uifkt/SlcQzb1q8aZEfCSZAyJhWSX6NnqHYZRIDle956bzQM/I7UM9/bC2X6KPWNqrsmkBcHhFPctZHFw4UAABAXGwUZwL7NVfrnBwh4VWZYXAH2tgNkxPNW80DPyO1DPf6c4fnat4lL4EvkoKHmORAR4INvV5l+jPwx2r2J+2xBISRq1KZCd3oGfkdqGe/H9yn4235BD4EvkpKSWepB4I6rMPIu8JPavcn6bGwlqxKJGN3oGfkdqGe/thZL9VHrG1UiA7QPRPCOmkrom9ZHGiREJEx2FkGLBtsg+aR61sF2EPC4KLM4h9rsKbuHmLeaBn5Hahnv7r4fGGaikMmY7FvYL2u54gETyvXCsG3CnfaryvD14ULIgDFoLFg2c9vqXYZTADle9o67zQM/I7UM/4Dmdvne1nTZGuFIwbnWdMsSdeJvHuThN2C6X9toyfFtcR9I9d5oGfkdqGf8AjsxkfQfRdtwTZWlh4mPDlu5btsnMLhUNobcWMuOyPd6j3KRyi7Fb95oGfkdqGf8IDc8m/CeZc9NtqrWBfm6uGVMjQYRw3BuYHIXF+KhdZ0Vp8HDY2EtCchkZdi8mB/u90DPyO1DP+FGcYqIQJEt7M4O2VVklryfqoQtda9V/3pdYWQhPBPw52bm3FIE3k9ujLvVyLM9phitrXZj57b7QM/I7UM/4nSlYmJk5lISAtGzj+t/ggRl1n7qVljXw0tLw78TVqkz+0o6YXAQG0k7SiAM6lIWxWPBw8e2e/0DPyO1DP+Mm5EiNo0YcbPetGuKLzjnK03NkXKwlickP8GgZ+Rzv4I5Sj+W1qQmEo8eZt2Q0gBjJehD3oLtd8LX6GiVr74ChYxjXI3O21AKAFutPKf4NAz8jnNsNykte09f67v5WccXRf3y2szAhEsSnPascLu2/0DPyOcMKjN+Hp/XFr99YVmjTFjdDtGdpnzcer6oKAiXjvtAz8jhwCkXJUD3qPLzLv65eJeF2H3u7eCPiXRdj97+++0DPyPgzu41DjSVJwe/L+pIIiXJQzlZeeDq+9uWfOy6GptfnrDe6Bn5IXWksC7hmKRu54Oax/qU91YzL+9EzAkRsTbcvIBj8C7tlvdAz8kUIDAXOY4NM8UAHlcfSuLZHL+m1QnJbdaO20sazrkbypvW/8a766bxoK31Tj0jyTUJ95Q9GkpZ16aWelTjlwOU131rXfWtd9a131rXfWtd9a131rXfWtd9a131rXfWtd9a131rXfWtd9a131rXfWtd9a131rXfWtd9a131oIKRDYGI2XPgnZksN+oeZuxDkQGbQ/SGI8sZSEjGWaxOfDdPKXfC53js+WUIIUnDudYUihF2CX7gFYCVqIWIzsnSeq+WeHWiFzpO24a1Mkn4TDj5aSGfPg1bvPtX2eIWZwLmZe6hoGgCAPLW9MhYvxzpf38AWQ22xOv1SjAWkLTgY8308t20hphYbWDK5TZpovmmgw4zs2elAAACwD/wAfizXhG30w702nKnHrf61OXeKPurLJyh53HpFXA2/YcnwTpU74Pt9mv2yoMDzW/Sfc8DsySwRRX7ZVrGcNRu6m3NvE9yHVntX7ZTnbiuNprC7ZA8q178Vr34rXvxSnVlKYTgbT+8Iks8Ste/Fa9+KlSDmfxNJeCD2xu50IkjI+BkxZC4uz1V+2U0n0rQbuvkjZNjd+D1e3PY5w8yMOP6pby3GnaIpNVYXcGNSzYttaYDlntbCWrQg+zO9/Wko5BUBT1Ktzz8t0Yeng0XPsb4sQwajqspMGwd6Aq464C9qVqLcwbB22aBnt0jOh3mEBkDEdqrVECgB9ojAeChag+XoQbKsKQCJ5BAt2S1QBeGfkdPBcwvVXOhbQ9rLgwUl9acWQDBKgIvDk2DvPkhbiDnE9gKmjJBuQh6mem2QrokVESZWL4LOjnJN7t7lIAKrAGNDNx7OIt947bO76Sbj1I9dui59klCuWTBPZ61d2lo3AtOpSxFeINwv72HepqrazBtXbZoGe3SM6HCJDZSk0/N0/N0IwW5bWDN3HwUaLl2LLUtYFHHgJlLTnGC7RKKJeAVeJRmXDpdVkqmRxNj3Z7Ve2WeZg9S2ouLTncPZ7+SBNRC6SimRDpEnsHx2oYfJ97KP72YAVx3jtShD2dG4jYxO0Ol1TsOI4C35HU26Ln2c4FlMg6k+lR/qXiUyyMjC/2XrV8zWuW91djQM9ukZ05wbs0EPkr8HX4OstgA0D48FEASMsl1a9+K40gQ7CynADcYcXIodhJz+922LOpmb7NXdWJIDi1AonEIxpUhBki4XmWUm6gIOodSSh/nmxEk8j3lpkeAWPU9qLES/kY1BGkI8TZaU4w6kHuB60I5LD/Xyw9aTGG0PIf7sSMWUuLs9VLAVKcWghIcRV+7qNIzaMBONglo1ECBIOQOjOzRc+1l+CKzoydKOOQc1o5YJxIx2aBnt0jOmlMBCt3LyrRHzWiPmvQU6EA+Chag+XoQbKqieL5bvrpT5BY113LDrtUBVgL2mNl7CHe/rQ0weUq/d1+72Ww0BxtPkdvI/MuEYpxNZO1R8O1KLxQQlArAStOVm+JZwvPtVulbXy48OGy5w+rudC2l3bZ5GL0Lag5bkgINkKUKFwxOjDSlGHYJfU1xPpHs99mi59rKbUGCKjeehT0BgAJx7T326Bnt0jPcMqNFy7L3s/FgPnpsvGGT36Qf8AdmSm7Ab3b3Nljl9SO0bbUZajJk6VYZdguPRh8kQ4DyD3VxIV7B4JYBxRU+RmDwKKrrjCp0jM2EEhJGvzdQIAwPB+bqPIyDagqlxRX5uvzdfm6lgDEG1aYPOVBMhvLsbSGvzdJStmQ2Qlh3QmvzfgWlfjKvzf/Sg//9oADAMBAAIAAwAAABDzzzzzzzzzzzzzzzzzzzzzzzzzzzzzzzzzzzzzzzzzzzzzzzzzzzzzzzzzzzzzzzzzzzzzzzzzzzzzzzzzzzzzzzzzzzzzzzzzzzzzzzzzzzzzzzzzzzzzzzzzzzzzzzzzzzzzzzzzzzzzzzzzzzzzzzzzzzzzzzzzzzzzzzzzzzzzzzzzzzzzzzzzzzzzzzzzzzzzzzzzzzzzzzzzzzzzzzzzzzzzzzzzzzzzzzzzzzzzzzzzzzzzzzzzzzzzzzzzzzzzzzzzzzzzzzzzzzzzzzzzzzzzzzzzzzzzzzzzzzzzzzzzzzzzzzzzzzzzzzzzzzzzzzzzzzzzzzzzzzzzzzzzzzzzzzzzzzzzzzzzzzzzzzzzzzzzzzzzzzzzzzzzzzzzzzzzzzzzzzzzzzzzzzzzzzzzzzzzzzzzzzzzzzzzzzzzzzzzzzzzzzzzzzzzzzzzzzzzzzzzzzzzzzzzzzzzzzzzzzzzzzzzzzzzzzzzzzzzzzzzzzzzzzzzzzzzzzzzzzzzzzzzzzzzzzzzzzzzzzzzzzzzzzzzzzzzzzzzzzzzzzzzzzzzzzzzzzzzzzzzzzzzzzzzzzzzzzzzzzzzzzzzzzzzzzzzzzzzzzzzzzzzzzzzzzzzzzzzzzzzzzzzzzzzzzzzzzzzzzzzzzzzzzzzzzzzzzzzzzzzzzzzzzzzzzzzzzzzzzzzzzzzzzzzzzzzzzzzzzzzzzzzzzzzzzzzzzzzzzzzzzzzzzzzzzzzzzzzzzzzzzzzzzzzzzzzzzzzzzzzzzzzzzzzzzzzzzzzzzzzzzzzzzzzzzzzzzzzzzzzzzzzzzzzzzzzzzzzzzzzzzzzzzzzzzzzzzzzzzzzzzzzzzzzzzzzzzzzzzzzzzzzzzzzzzzzzzzzzzzzzzzzzzzzzzzzzzzzzzzzzzzzzzzzzzzzzzzzzzzzzzzzzzzzzzzzzzzzzzzzzzzzzzzzzzzzzzzzzzzzzzzzzzzzzzzzzzzzzzzzzzzzzzzzzzzzzzzzzzzzzzzzzzzzzzzzzzzzzzzzzzzzzzzzzzzzzzzzzzzzzzzzzzzzzzzzzzzzzzzzzzzzzzzzzzzzzzzzzzzzzzzzzzzzzzzzzzzzzzzzzzzzzzzzzzzzzzzzzzzzzzzzzzzzzzzzzzzzzzzzzzzzzzzzzzzzzzzzzzzzzzzzzzzzzzzzzzzzzzzzzzzzzzzzzzzzzzzzzzzzzzzzzzzzzzzzzzzzzzzzzzzzzzzzzzzzzzzzzzzzzzzzzzzzzzzzzzzzzzzzzzzzzzzzzzzzzzzzzzzzzzzzzzzzzzzzzzzzzzzzzzzzzzzzzzzzzzzzzzzzzzzzzzzzzzzzzzzzzzzzzzzzzzzzzzzzzzzzzzzzzzzzzzzzzzzzzzzzzzzzzzzzzzzzzzzzzzzzzzzzzzzzzzzzzzzzzzzzzzzzzzzzzzzzzzzzzzzzzzzzzzzzzzzzzzzzzzzzzzzzzzzzzzzzzzzzzzzzzzzzzzzzzzzzzzzzzzzzzzzzzzzzzzzzzzzzzzzzzzziTDzzzzzzzzzzzzzzzzzzzzzzzzzzzzzzzzzzzzzzzzzzzzzzzzzzzzzzzzzzzzzzzzzzzzzzzzzzzzzzzzzzzzzzzzzzjgAADzzzzzzzzzzzzzzzzzzzzzzzzzzzzzzzzzzzzzzzzzzzzzzzzzzzzzzzzzzzzzzzzzzzzzzzzzzzzzzzzzzzzzzzzzAAAABDzzzzzzzzzzzzzzzzzzzzzzzzzzzzzzzzzzzzzzzzzzzzzzzzzzzzzzzzzzzzzzzzzzzzzzzzzzzzzzzzzzzzzzzwAAAAATzzjDDDDDDDDDCDDTzzzzzzzzzzzzzzzzzzzzzzzzzzzzzzzzzzzzzzzzzzzzzzzzzzzzzzzzzzzzzzzzzzzzzzzwAAAAADDwgAAAAAAAAAAABDTzzzzzzzzzzzzzzzzzzzzzzzzzzzzzzzzzzzzzzzzzzzzzzzzzzzzzzzzzzzzzzzzzzzzzzwAAAAAADSwAAAAAAAAAAAADTzzzzzzzzzzzzzzzzzzzzzzzzzzzzzzzzzzzzzzzzzzzzzzzzzzzzzzzzzzzzzzzzzzzzzzwAAAAAAADzgAwAQgAAAAAABBzzzzzzzzzzzzzzzzzzzzzzzzzzzzzzzzzzzzzzzzzzzzzzzzzzzzzzzzzzzzzzzzzzzzzzwAAAAAAABjzzjTSyQAAAAAABTzzzzzzzzzzzzzzzzzzzzzzzzzzzzzzzzzzzzzzzzzzzzzzzzzzzzzzzzzzzzzzzzzzzzzwAAAAAAAATygABBDyAAAAAABTzzzzzzzzzzzzzzzzzzzzzzzzzzzzzzzzzzzzzzzzzzzzzzzzzzzzzzzzzzzzzzzzzzzzzwAAAAAAABygAAAABSwgAAAABTzzzzzzzzzzzzzzzzzzzzzzzzzzzzzzzzzzzzzzzzzzzzzzzzzzzzzzzzzzzzzzzzzzzzzwAAAAAAADwgABSQBBQAAAAABTzzzzzzzzzzzzzzzzzzzzzzzzzzzzzzzzzzzzzzzzzzzzzzzzzzzzzzzzzzzzzzzzzzzzzwAAAAAAADwgATzwABQAAAAABTzzzzzzzzzzzzzzzzzzzzzzzzzzzzzzzzzzzzzzzzzzzzzzzzzzzzzzzzzzzzzzzzzzzzzwAAAAAAATwgADzAARwAAAAABTzzzzzzzzzzzzzzzzzzzzzzzzzzzzzzzzzzzzzzzzzzzzzzzzzzzzzzzzzzzzzzzzzzzzzwAAAAAAADwgAAAAADggAAAABTzzzzzzzzzzzzzzzzzzzzzzzzzzzzzzzzzzzzzzzzzzzzzzzzzzzzzzzzzzzzzzzzzzzzzwAAAAAAAATRggAQRwgAAAAABTzzzzzzzzzzzzzzzzzzzzzzzzzzzzzzzzzzzzzzzzzzzzzzzzzzzzzzzzzzzzzzzzzzzzzwAAAAAAAADTixwzwgAAAAAABTzzzzzzzzzzzzzzzzzzzzzzzzzzzzzzzzzzzzzzzzzzzzzzzzzzzzzzzzzzzzzzzzzzzzzwAAAAAAAAAADDBDwQAAAAAABTzzzzzzzzzzzzzzzzzzzzzzzzzzzzzzzzzzzzzzzzzzzzzzzzzzzzzzzzzzzzzzzzzzzzzygAAAAAAAAAAABDSwAAAAAABTzzzzzzzzzzzzzzzzzzzzzzzzzzzzzzzzzzzzzzzzzzzzzzzzzzzzzzzzzzzzzzzzzzzzzzygAAAAAAAAAAAATRgAAAAABTzzzzzzzzzzzzzzzzzzzzzzzzzzzzzzzzzzzzzzzzzzzzzzzzzzzzzzzzzzzzzzzzzzzzzzywwgAAAAAAAAAABzyAAAAABTzzzzzzzzzzzzzzzzzzzzzzzzzzzzzzzzzzzzzzzzzzzzzzzzzzzzzzzzzzzzzzzzzzzzzzzzzzzzzzzzzzzzzzzggAAAzzzzzzzzzzzzzzzzzzzzzzzzzzzzzzzzzzzzzzzzzzzzzzzzzzzzzzzzzzzzzzzzzzzzzzzzzzzzzzzzzzzzzzzzzywAADTzzzzzzzzzzzzzzzzzzzzzzzzzzzzzzzzzzzzzzzzzzzzzzzzzzzzzzzzzzzzzzzzzzzzzzzzzzzzzzzzzzzzzzzzzgAxzzzzzzzzzzzzzzzzzzzzzzzzzzzzzzzzzzzzzzzzzzzzzzzzzzzzzzzzzzzzzzzzzzzzzzzzzzzzzzzzzzzzzzzzzzzzzzzzzzzzzzzzzzzzzzzzzzzzzzzzzzzzzzzzzzzzzzzzzzzzzzzzzzzzzzzzzzzzzzzzzzzzzzzzzzzzzzzzzzzzzzzzzzzzzzzzzzzzzzzzzzzzzzzzzzzzzzzzzzzzzzzzzzzzzzzzzzzzzzzzzzzzzzzzzzzzzzzzzzzzzzzzzzzzzzzzzzzzzzzzzzzzzzzzzzzzzzzzzzzzzzzzzzzzzzzzzzzzzzzzzzzzzzzzzzzzzzzzzzzzzzzzzzzzzzzzzzyDTTyCjyjTBBSgRzwRwDzjjTzzzzzzzzzzzzzzzzzzzzzzzzzzzzzzzzzzzzzzzzzzzzzzzzzzzzzzzzzzzzzzzzzzzzzzxbxzwiBShQwBSiJTwKBzyhBjzzzzzzzzzzzzzzzzzzzzzzzzzzzzzzzzzzzzzzzzzzzzzzzzzzzzzzzzzzzzzzzzzzzzzzyAQywghyhRQhSjCDxLjCzAwzzzzzzzzzzzzzzzzzzzzzzzzzzzzzzzzzzzzzzzzzzzzzzzzzzzzzzzzzzzzzzzzzzzzzzzzyzyzzzyxzyxywwzzywzxzwzzzzzzzzzzzzzzzzzzzzzzzzzzzzzzzzzzzzzzzzzzzzzzzzzzzzzzzzzzzzzzzzzzzzzzzzzzzzzzzzzzzzzzzzzzzzzzzzzzzzzzzzzzzzzzzzzzzzzzzzzzzzzzzzzzzzzzzzzzzzzzzzzzzzzzzzzzzzzzzzzzzzzzzzzzzzzzzzzzzzzzzzzzzzzzzzzzzzzzzzzzzzzzzzzzzzzzzzzzzzzzzzzzzzzzzzzzzzzzzzzzzzzzzzzzzzzzzzzzzzzzzzzzzzzzzzzzzzzzzzzzzzzzzzzzzzzzzzzzzzzzzzzzzzzzzzzzzzzzzzzzzzzzzzzzzzzzzzzzzzzzzzzzzzzzzzzzzzzzzzzzzzzzzzzzzzzzzzzzzzzzzzzzzzzzzzzzzzzzzzzzzzzzzzzzzzzzzzzzzzzzzzzzzzzzzzzzzzzzzzzzzzzzzzzzzzzzzzzzzzzzzzzzzzzzzzzzzzzzzzzzzzzzzzzzzzzzzzzzzzzzzzzzzzzzzzzzzzzzzzzzzzzzzzzzzzzzzzzzzzzzzzzzzzzzzzzzzzzzzzzzzzzzzzzzzzzzzzzzzzzzzzzzzzzzzzzzzzzzzzzzzzzzzzzzzzzzzzzzzzzzzzzzzzzzzzzzzzzzzzzzzzzzzzzzzzzzzzzzzzzzzzzzzzzzzzzzzzzzzzzzzzzzzzzzzzzzzzzzzzzzzzzzzzzzzzzzzzzzzzzzzzzzzzzzzzzzzzzzzzzzzzzzzzzzzzzzzzzzzzzzzzzzzzzzzzzzzzzzzzzzzzzzzzzzzzzzzzzzzzzzzzzzzzzzzzzzzzzzzzzzzzzzzzzzzzzzzzzzzzzzzzzzzzzzzzzzzzzzzzzzzzzzzzzzzzzzzzzzzzzzzzzzzzzzzzzzzzzzzzzzzzzzzzzzzzzzzzzzzzzzzzzzzzzzzzzzzzzzzzzzzzzzzzzzzzzzzzzzzzzzzzzzzzzzzzzzzzzzzzzzzzzzzzzzzzzzzzzzzzzzzzzzzzzzzzzzzzzzzzzzzzzzzzzzzzzzzzzzzzzzzzzzzzzzzzzzzzzzzzzzzzzzzzzzzzzzzzzzzzzzzzzzzzzzzzzzzzzzzzzzzzzzzzzzzzzzzzzzzzzzzzzzzzzzzzzzzzzzzzzzzzzzzzzzzzzzzzzzzzzzzzzzzzzzzzzzzzzzzzzzzzzzzzzzzzzzzzzzzzzzzzzzzzzzzzzzzzzzzzzzzzzzzzzzzzzzzzzzzzzzzzzzzzzzzzzzzzzzzzzzzzzzzzzzzzzzzzzzzzzzzzzzzzzzzzzzzzzzzzzzzzzzzzzzzzzzzzzzzzzzzzzzzzzzzzzzzzzzzzzzzzzzzzzzzzzzzzzzzzzzzzzzzzzzzzzzzzzzzzzzzzzzzzzzzzzzzzzzzzzzzzzzzzzzzzzzzzzzzzzzzzzzzzzzzzzzzzzzzzzzzzzzzzzzzzzzzzzzzzzzzzzzzzzzzzzzzzzzzzzzzzzzzzzzzzzzzzzzzzzzzzzzzzzzzzzzzzzzzzzzzzzzzzzzzzzzzzzzzzzzzzzzzzzzzzzzzzzzzzzzzzzzzzzzzzzzzzzzzzzzzzzzzzzzzzzzzzzzzzzzzzzzzzzzzzzzzzzzzzzzzzzzzzzzzzzzz//EABQRAQAAAAAAAAAAAAAAAAAAAMD/2gAIAQMBAT8QORf/xAAXEQEAAwAAAAAAAAAAAAAAAAABYKCw/9oACAECAQE/EN/ljzbL/8QALBABAAECBAUEAwEBAQEBAAAAAREAITFBUWEQcHGB8CAwQJGhwfGx0cDhoP/aAAgBAQABPxD/AM+WmhWQKjUkfYoGcbNHcqIZqkn9C/2o3IXYQMwTDgwSIwTy3BCUYXemG6A1pTKkX/OTymn1/Lkaq48SIUcVgtAGZ9UsctgOSC4TCNxS50rBE3uxGLQ0AwAsFiD0ijIwlRC3zcF+AI/6DlpNCq5jSNzDNgwlJBcWEpU6r60gb1QFhnADeGdPp4qRpBzER5ZYK1HjKfRS1z4sd98XYxSz9m6BjGSzNmtk3acsil1JFxRTu9YHtIqPXJjFagqMxamDgc5Ts+4J25Y47lLa3243b27ZJLdrIGwI6Gt9AO9PPJliKSmM7Hx/Pnz58+fPnz58+fPnz58+fPnz5Ug1vBn1KsIoAQ7pB91bwCeg4MncOSkrkUzNlEbR7YqOLgDIiYNWixsy0sDQ9jDLjo4FyjcugLZkmdOVZfJIs5jiOYj8h5SShGolyilxixD8jsbUVdbEAMXJvSjMOSXhNXuDxRZAbg6u+sQzoYLCEiOCPG4wYjNheijdHIfKL4h+dgiXHcoFCx0KwMtbBgzQ48kPCavdsOJJvLHc4Wzv44AqXzIHqNDjHuxj3rK3Pl4ugpDXZxK45Bm5yQeE1e6vUjRBFm2RNscqPFmYQlx0DImSJxEUjG1G6wQawMXy5CgkBSDkiU/9swxKGQINCGTyP8Jq962haBRSewIGo5+hcaIBiOzCwNAZPy7sdSYg9Z7sdOR/hNXvL4ueEpB1EKc6POYQhsMg2HGeTGjBn0brZZ1ja6nZE3ET5TTityZPsKOWCyZgI/3kd4TV78T6mLEdmFR3HI9Giqio4WMgSdTNwJgWTv0Autf/AAlUYJ7ikjyXIR66fpUXYjEdbyr9UjY1ac1yQ6Z5U7hJRx0kK9g6Vdj8mM1Zz6H4THGXmYPwZyOeE1fAvzQlOD3GCTqS8RbUR0TE0RhHJBpxfHALEsil7yygxo66sf2YXSYMg9aSQ4UcuchSmeo4tlRkWJRXoHHYbOS/AagqwJtZyO8Jq+Bcgw2M++LmgGkGePY0idn1IEgSO/RMvYp8oLCF9cF7NKAiTi26YVTD/I0J60nk2SzxZXIutZEbI6VGIaeQ4uc5nGZSWERhIT3vG6OR3hNXwUbUFOOMOjJ2dJ6G2TWHd9fTfBgvSeLMdmdTCxuGxTY2lEq6r6Lh0FG/iDZEq1rMHvvzHYawNGzJRMGITdQnEggmNAuh10GO6Z93xujkd4TV8EPkK4nfYs6BC0PBYJcKVM23gYLmBki7osnbIlGVdfYlPCC1+0tnEySjbDJcn/W+psiFAQBGyOdQtpBq9v8AAk9143RyO8Jq+A4mMAlBu9C5nxDNL+rikbUMrIQzY9pJkEyysCYr8MJcKmxxlSf7g/ZCWThO+TITiD6OMYimdY0xPHg7I+543RyO8Jq+AMXUpK3Q/M+F1xz2J6F1sqW/U8pSm6r7kcJiLRBpm6zo4z4/hLEPRlLdl7njdHI7wmr30bRwzDLtM0Uwh8BAHYDgxGzTZwSaiJ1eq/sNQmqSHdTpbFLTaQP3NY1aDi1BxNyz6QNqQhRcSidRsjAV7X1OBO06F5MPSJvceN0cjvCavfKFg+TMXE/BCup6RDcKJp1CbiEQzIrYJJsCAIA04QUgwAX2jhbBiEShOmeRC77RPpkxPTEDI3J4Ps9+GAYUxABNxh9zxujkd4TV75rIR1pn8TiaeXtusvohyizarBWGoRxZB629FmK1OgU7P5PS03CNi1p568GAAQiSJW1xKJhifb8bo5HeE1e+5iUq+Dxg14WWiMPohyizajJRdVEMwEx1Jh3PQ0KtMYkN3fw9LRcJ2bXnnrwQiAF1cq3uJTEsx7fjdHI7wmr3ylYPkzBxQEb8RCelRkUErxKc1VMArNmwGhLSBuI5nBiJUUj/AOKVYm7QbMXrC20C293FfTOVSehg/T7cGXDqBAOqwe543RyO8Jq98ylOBxHDvEd6H0M+AJH6eDxbIFiRa6rB1ep8UWgGsAE7A08IGRj3VD0isRBmHQlZjb0jWIdKjABm1GoHTSMjm3CE7Do3gy9Im9x43RyO8Jq+BaLdLeBMGlvU+FmT5a7pTZ2VBG2eFoR7nuHkriNWH5dE18bQa0sYPpB2Ye543RyO8Jq+BCvSVhFu9SFy4hNQxNCQAYhYZgc0+1JGMMwUk5CTqoF0q09VAmX1Cb7WCwcMFYkYbQerjGALlWKvB5yr7fc8bo5HeE1fBBInRs7bljYleXiSNnhUsR6uL1aKIZEMihuJk+w6caIjs9bQSuRjUlJgiCfgvAwnNVaQiAF1cqlbSDR7/wCBL7rxujkd4TV8ESvMidEzEkRsilKQCxbeLuMOWDc4hsAsQeLZAwxiyBKYUhgMX0XoA1p5SShGiNz0HHNhU9VsbqUHDxd3tgm5OZsKLA8RZ1c1c1lc3iFx2dRwTrqMN0x7vjdHI7wmr4UrvC7TElgkXGzWHu7jhdHEzlZuEvGIdEJ8NkMdqe3gwo7GZaUjFxEIG9loBA2SSOjYohbwMDQDDijn5UYlS2AM2nA4ZQOeeZHG6CEqsrK+943RyO8Jq+GKji4AyImDUHqgkFrK0d41LVljJL6QdRIcp9mSyEriaG8oE2JsHwPG6ORwbJe2d07kPf4rJ1kr9RLlW4X4I6ivVaCmsQD9Z9qnCcYKayII8koWvzU4Egk8nG8t8KW/U8jSGyJx3hnEJXql6mg+B43RyOeMI8YKHrJXy98NzbzyeqmBo5OJVHByghEcRq9SypibeWrnVEs/f8bo5HM0SUJUAPaOm/luLLHCTJ1RImYpSdRLZkFm3BN7OfE+uQJE+kkaTLKlgsgIRMRPe8bo5HOf2DKiETMShm6KpZ2ydW7oOCfLsAJJZEXQgtzf6L8QIGZewyNzb73jdHI97Xl0mPPXCGl8QpMnBPoOaLiWRH5SwWFEImCNH5gZgDB0N9JgYcQ3iGRKFy3Ad7mdOLbHCTM1RCOYj7vjdHJAiTGTDmizXLElTMQsWUvw9H5MEG3yrBNCnG2BqxqiGdCo4OUEiJiPESSEW88Lqpk6OT3XjdHJG+BXHaQvuCNGclUCWljv/akAYtybiS5uW+TZyTEBgN1J0Oh4jfqeRoTZFobp8ZiGfUhW69wAgmunJNj8mUSIEafLuVTuVPoSWAOt2v3X92n+7T/dp/u0/wB2n+7T/dp/u0/3af7tP92n+7T/AHaf7tP92n+7T/dp/u0/3af7tP8Adp/u0xthUmLCLwUevoj+NCYDuyANgtL7aRRjYowFQ2Qymaae6L35Y2EoUGL0QlgtaB7RUt/JZU7zNGZyyLUHCn/NZO5Kxf2HuQPc9gE5EAEq00ukSXI/NX/AjlnZ1bZJTrZuprfYXgZeC4jUOoTgX5Zizwl5CLOSYjkg0AbgDAly6wnRky9TfCAnNjmwtxhBdAjIkEQAFgDLlrERqY1G84O270E8aB9fOzGknaot+pDrHxH4BBctwIAjZHOkOdBMXiwINjaMacDTEkKbhpx2bXBu4KGCwBABgB/+PtYJcKdSx+EyEu9ZBuwpwTtjXQD81VwbDA/UBSWWg9QEfAhojx3+DmGIZjCehVxlTDc8JAHSjwL9UfEJLLusCLp6DGLFw6RuIV4F+qQvBA1EMaGObocU0SwEWZTuP/uvAv1TOMyCgkHbiu3IMcAlb9+hWrVjfQNIS4NkOMaZY5RG5lxVqwElyinuH6NGqUwwcpSnYpe4F6IABIjInoTWS2DEZkhdhrwL9VBeAqLSi2YY6nki+Gb2E2FyYq9BhQFYCVorjJprC9BZxdqDUCZFCxkN7qv0aOc81kMERmS1kkkKl1KM0AwJjEjmZygOCEQAurlTvONMhII6pjq6Jp/5TJDb30amexNgsCtvULq3dorgyJ0QpuAAaDBDIgpsjSV9jgZU2AWoyi5H/AATvLnw8bo4+c10lbR3LimiFlMhfj58sLW+BlIrB19HST28AKEUSYcx4eWfYAeBNjFlIiwSY0iMJCVOm67KxI7SGw9FywhDicJur2KMvaRgXYR90j4DIXSJuJUAhMOH4AI6RyQfEHZmoYfbSUgA9B4rvqFE0kcUCTJT0R5tYGwWHO0ycmgu7gJU4AZtD2kESiTNZAf8cLTiusoCfWVTrs9PUkA2sPoXO80qw847FiOjPZrV3psYeP3dQdNCRF9SQyYIbocPG6OPnNdBkDDauJHZG/EQInQ7jaxgEZO3q66wEqsCJVp8SQ5EQ7TRWDbFlRf8cdWSUSFje0Bm0mdnzJNsdhA2CkkRlMEx7IXpqZ5lYiJ+mAbNYdAhWSB9SINHryQcAg5zunch71PBXLFoE7j3Y9dyjQGy2epAqStSCtQzZZqNFSRIbI3fzQJgLriAzDLcaa1AS2kp3HedD09cAoeXRbrKI12Uq0CckEna1zMqQrkZRYd11KWMEILiyGwh3cPG6OPnNdBuESkNdzm1XkX6ryL9VGrsEM6TOV6OmnjgCuFXtZDgrDAqNxpgpCTVKEN4Bsc3wDNbFKWCUiRPSmxsHHB8DG40g9nsWdbroU2JMgxWh+HSJgBV8Vld1q2In4QMah4TMkSLY773KwGAuHIdROR6czMWiE0CDqtSlpPJCUgdRKMEgmHYVXMhNzAgKe4e8R3FSdZ9YhGdoItkFjdCkvqAJh4tRxMxoyFKbK7dyMyQuwuVOsW1KjKrqtDQ6RIT6ryT9UmA8Vgd2sT0EDgG4hR4JzSB+Cjt6eva8ILJAMsNg6A1qEfMcBIl0DFcgawhiyECFbrK7rw8bo4+c10v6XfXAoLCYxgdOO3a0PEaQJRBbC209HST28AKEUSYcx4eQF2CjNjECiKgCVYohdLBGojqlWRBy4k2BKMAa0oayXK47YmaulARQrQ+q8k/VeSfrhmlqt5SdnpBq5HoYKZZPyOYlxBKS+C5FqytG5zGNJ8KG2aI3KBORABKtKaQUJ6mjZw3FTYRxxFgowEsCxOqrUkKIhsjCbq9ipsg3CZm7tItij7j1gMH0HCIcDkmN2XsUJU4LuQO4iVjg2Lpb/FG69PXsMxOmGSjiShpfVooTpZITGdju4+N0cfOa/a7ddXYoSgwffiA9QY8IqVhWAjdbdQlwcJKETqEH45k5PAtz6+QiCboTGs8cLUcIJ1g2GpfXt3AYk0hZ0HXkiVMiAWfRpG2Z4+weh1i6SXvFAAHAZO4eh24SpldcKDAeAxO4cGAAQiSJXkn6ohgiCA7ejyT9VeTcwg/HFSnSpK/VeSfqvJP1Xkn6o1g6CTvHEQksEofdAjhkQEfrgBAEbI515J+qSsxCJRpbhmYFjDpNeSfqgggw4jAQgSQd68k/X/pQf/Z;" parent="1" vertex="1">
          <mxGeometry x="128" y="148" width="120" height="80" as="geometry" />
        </mxCell>
        <mxCell id="u7wA1UhLNrB0_62OL5z6-4" value="Indoor_algo" style="text;html=1;align=center;verticalAlign=middle;resizable=0;points=[];autosize=1;fontStyle=1" parent="1" vertex="1">
          <mxGeometry x="148" y="4" width="80" height="20" as="geometry" />
        </mxCell>
        <mxCell id="u7wA1UhLNrB0_62OL5z6-7" style="edgeStyle=orthogonalEdgeStyle;rounded=0;orthogonalLoop=1;jettySize=auto;html=1;exitX=0.5;exitY=1;exitDx=0;exitDy=0;" parent="1" source="u7wA1UhLNrB0_62OL5z6-5" target="u7wA1UhLNrB0_62OL5z6-3" edge="1">
          <mxGeometry relative="1" as="geometry" />
        </mxCell>
        <mxCell id="u7wA1UhLNrB0_62OL5z6-5" value="Start new session" style="ellipse;whiteSpace=wrap;html=1;" parent="1" vertex="1">
          <mxGeometry x="128" y="90" width="120" height="40" as="geometry" />
        </mxCell>
        <mxCell id="u7wA1UhLNrB0_62OL5z6-8" value="Set camera to 60 FPS" style="text;html=1;align=center;verticalAlign=middle;resizable=0;points=[];autosize=1;" parent="1" vertex="1">
          <mxGeometry x="32" y="178" width="130" height="20" as="geometry" />
        </mxCell>
        <mxCell id="u7wA1UhLNrB0_62OL5z6-9" value="Perform Club Detection&lt;br&gt;&lt;b&gt;&lt;i&gt;(if enabled)&lt;/i&gt;&lt;/b&gt;" style="rounded=1;whiteSpace=wrap;html=1;" parent="1" vertex="1">
          <mxGeometry x="128" y="260" width="120" height="60" as="geometry" />
        </mxCell>
        <mxCell id="LaPquhISrTEwAAFqGGU--8" style="edgeStyle=orthogonalEdgeStyle;rounded=0;orthogonalLoop=1;jettySize=auto;html=1;exitX=0.5;exitY=1;exitDx=0;exitDy=0;entryX=0.5;entryY=0;entryDx=0;entryDy=0;" edge="1" parent="1" source="u7wA1UhLNrB0_62OL5z6-23" target="LaPquhISrTEwAAFqGGU--4">
          <mxGeometry relative="1" as="geometry" />
        </mxCell>
        <mxCell id="u7wA1UhLNrB0_62OL5z6-23" value="Find initial &amp;amp; flying balls&lt;br&gt;by using CoreML&lt;br&gt;(deep-learning approach)" style="rounded=1;whiteSpace=wrap;html=1;" parent="1" vertex="1">
          <mxGeometry x="130.5" y="600" width="162" height="60" as="geometry" />
        </mxCell>
        <mxCell id="LaPquhISrTEwAAFqGGU--4" value="&lt;div&gt;&lt;b&gt;Output data:&lt;/b&gt;&lt;/div&gt;&lt;div&gt;BallTime &lt;i&gt;{valid balls timestamps}&lt;/i&gt;&lt;br&gt;&lt;/div&gt;&lt;div&gt;BallObservations &lt;i&gt;{valid balls}&lt;/i&gt;&lt;/div&gt;&lt;div&gt;InitBallParameters&lt;br&gt;&lt;/div&gt;&lt;div&gt;BallCenterSample&lt;/div&gt;" style="rounded=1;whiteSpace=wrap;html=1;align=left;" vertex="1" parent="1">
          <mxGeometry x="111.5" y="690" width="200" height="80" as="geometry" />
        </mxCell>
        <mxCell id="LaPquhISrTEwAAFqGGU--5" value="" style="endArrow=classic;html=1;strokeWidth=3;align=center;dashed=1;" edge="1" parent="1">
          <mxGeometry width="50" height="50" relative="1" as="geometry">
            <mxPoint x="210" y="820" as="sourcePoint" />
            <mxPoint x="-10" y="820" as="targetPoint" />
          </mxGeometry>
        </mxCell>
        <mxCell id="LaPquhISrTEwAAFqGGU--6" value="" style="endArrow=none;html=1;strokeWidth=3;align=center;dashed=1;" edge="1" parent="1">
          <mxGeometry width="50" height="50" relative="1" as="geometry">
            <mxPoint x="209.5" y="820" as="sourcePoint" />
            <mxPoint x="209" y="770" as="targetPoint" />
          </mxGeometry>
        </mxCell>
        <mxCell id="LaPquhISrTEwAAFqGGU--7" value="Send BallCenterSample to MLM" style="text;html=1;strokeColor=none;fillColor=none;align=center;verticalAlign=middle;whiteSpace=wrap;rounded=0;dashed=1;" vertex="1" parent="1">
          <mxGeometry x="15.5" y="800" width="180" height="20" as="geometry" />
        </mxCell>
        <mxCell id="LaPquhISrTEwAAFqGGU--25" value="Waiting for Trigger From MLM" style="ellipse;shape=cloud;whiteSpace=wrap;html=1;align=center;fontStyle=1" vertex="1" parent="1">
          <mxGeometry x="53" y="340" width="277" height="100" as="geometry" />
        </mxCell>
        <mxCell id="LaPquhISrTEwAAFqGGU--26" value="" style="endArrow=classic;html=1;align=center;strokeWidth=3;dashed=1;" edge="1" parent="1">
          <mxGeometry width="50" height="50" relative="1" as="geometry">
            <mxPoint x="-30" y="380" as="sourcePoint" />
            <mxPoint x="69.5" y="380" as="targetPoint" />
          </mxGeometry>
        </mxCell>
        <mxCell id="LaPquhISrTEwAAFqGGU--31" style="edgeStyle=orthogonalEdgeStyle;rounded=0;orthogonalLoop=1;jettySize=auto;html=1;exitX=0.5;exitY=1;exitDx=0;exitDy=0;entryX=0.5;entryY=0;entryDx=0;entryDy=0;" edge="1" parent="1" source="LaPquhISrTEwAAFqGGU--29" target="LaPquhISrTEwAAFqGGU--30">
          <mxGeometry relative="1" as="geometry" />
        </mxCell>
        <mxCell id="LaPquhISrTEwAAFqGGU--29" value="&lt;div&gt;&lt;b&gt;Fill data:&amp;nbsp;&lt;/b&gt;&lt;/div&gt;&lt;div&gt;&lt;b&gt;- Motion Sensor Data &lt;/b&gt;{PhoneAccX,&amp;nbsp;PhoneAccY,&amp;nbsp;PhoneAccZ,&amp;nbsp;&amp;nbsp;Barometer}&lt;/div&gt;&lt;div&gt;&lt;b&gt;&lt;span&gt;- DeviceModel&lt;/span&gt;&lt;br&gt;&lt;/b&gt;&lt;/div&gt;&lt;div&gt;&lt;b&gt;- kMatrix &lt;/b&gt;{Calibration data}&lt;/div&gt;" style="rounded=1;whiteSpace=wrap;html=1;align=left;" vertex="1" parent="1">
          <mxGeometry x="9" y="460" width="405" height="60" as="geometry" />
        </mxCell>
        <mxCell id="LaPquhISrTEwAAFqGGU--32" style="edgeStyle=orthogonalEdgeStyle;rounded=0;orthogonalLoop=1;jettySize=auto;html=1;exitX=0.5;exitY=1;exitDx=0;exitDy=0;entryX=0.5;entryY=0;entryDx=0;entryDy=0;" edge="1" parent="1" source="LaPquhISrTEwAAFqGGU--30" target="u7wA1UhLNrB0_62OL5z6-23">
          <mxGeometry relative="1" as="geometry" />
        </mxCell>
        <mxCell id="LaPquhISrTEwAAFqGGU--30" value="Fill Image Buffer&amp;amp;TimeStamps" style="rounded=1;whiteSpace=wrap;html=1;align=center;fontStyle=1" vertex="1" parent="1">
          <mxGeometry x="61.5" y="535" width="300" height="40" as="geometry" />
        </mxCell>
        <mxCell id="LaPquhISrTEwAAFqGGU--33" style="edgeStyle=orthogonalEdgeStyle;rounded=0;orthogonalLoop=1;jettySize=auto;html=1;exitX=0.75;exitY=1;exitDx=0;exitDy=0;entryX=0.75;entryY=0;entryDx=0;entryDy=0;" edge="1" parent="1" source="u7wA1UhLNrB0_62OL5z6-9" target="u7wA1UhLNrB0_62OL5z6-9">
          <mxGeometry relative="1" as="geometry">
            <Array as="points">
              <mxPoint x="218" y="340" />
              <mxPoint x="280" y="340" />
              <mxPoint x="280" y="240" />
              <mxPoint x="218" y="240" />
            </Array>
          </mxGeometry>
        </mxCell>
        <mxCell id="LaPquhISrTEwAAFqGGU--34" style="edgeStyle=orthogonalEdgeStyle;rounded=0;orthogonalLoop=1;jettySize=auto;html=1;exitX=0.5;exitY=1;exitDx=0;exitDy=0;exitPerimeter=0;" edge="1" parent="1" source="LaPquhISrTEwAAFqGGU--36" target="LaPquhISrTEwAAFqGGU--38">
          <mxGeometry relative="1" as="geometry" />
        </mxCell>
        <mxCell id="LaPquhISrTEwAAFqGGU--35" style="edgeStyle=orthogonalEdgeStyle;rounded=0;orthogonalLoop=1;jettySize=auto;html=1;exitX=0;exitY=0.5;exitDx=0;exitDy=0;exitPerimeter=0;entryX=0;entryY=0.5;entryDx=0;entryDy=0;entryPerimeter=0;" edge="1" parent="1" source="LaPquhISrTEwAAFqGGU--36" target="LaPquhISrTEwAAFqGGU--41">
          <mxGeometry relative="1" as="geometry" />
        </mxCell>
        <mxCell id="LaPquhISrTEwAAFqGGU--36" value="numOfFlyingBalls &amp;gt; 0" style="strokeWidth=2;html=1;shape=mxgraph.flowchart.decision;whiteSpace=wrap;align=center;" vertex="1" parent="1">
          <mxGeometry x="131" y="996.5" width="205" height="60" as="geometry" />
        </mxCell>
        <mxCell id="LaPquhISrTEwAAFqGGU--37" style="edgeStyle=orthogonalEdgeStyle;rounded=0;orthogonalLoop=1;jettySize=auto;html=1;exitX=0.5;exitY=1;exitDx=0;exitDy=0;entryX=0.5;entryY=0;entryDx=0;entryDy=0;strokeWidth=1;align=center;" edge="1" parent="1" source="LaPquhISrTEwAAFqGGU--38" target="LaPquhISrTEwAAFqGGU--47">
          <mxGeometry relative="1" as="geometry" />
        </mxCell>
        <mxCell id="LaPquhISrTEwAAFqGGU--38" value="Calculate LAngle&amp;amp;LDirection" style="rounded=1;whiteSpace=wrap;html=1;align=center;fontStyle=1" vertex="1" parent="1">
          <mxGeometry x="128.5" y="1070" width="210" height="40" as="geometry" />
        </mxCell>
        <mxCell id="LaPquhISrTEwAAFqGGU--39" style="edgeStyle=orthogonalEdgeStyle;rounded=0;orthogonalLoop=1;jettySize=auto;html=1;exitX=0.5;exitY=1;exitDx=0;exitDy=0;entryX=0.5;entryY=0;entryDx=0;entryDy=0;strokeWidth=1;align=center;" edge="1" parent="1" source="LaPquhISrTEwAAFqGGU--40" target="LaPquhISrTEwAAFqGGU--49">
          <mxGeometry relative="1" as="geometry" />
        </mxCell>
        <mxCell id="LaPquhISrTEwAAFqGGU--40" value="Compute Carry&amp;amp;Traces" style="rounded=1;whiteSpace=wrap;html=1;align=center;fontStyle=1" vertex="1" parent="1">
          <mxGeometry x="128.5" y="1190" width="210" height="40" as="geometry" />
        </mxCell>
        <mxCell id="LaPquhISrTEwAAFqGGU--41" value="End" style="strokeWidth=2;html=1;shape=mxgraph.flowchart.start_1;whiteSpace=wrap;" vertex="1" parent="1">
          <mxGeometry x="183.5" y="1310" width="100" height="40" as="geometry" />
        </mxCell>
        <mxCell id="LaPquhISrTEwAAFqGGU--42" value="&lt;div&gt;to perform calculation, at least&amp;nbsp;&lt;/div&gt;&lt;div&gt;1 flying ball + &lt;br&gt;&lt;/div&gt;&lt;div&gt;initial ball are needed&lt;br&gt;&lt;/div&gt;" style="shape=note;whiteSpace=wrap;html=1;backgroundOutline=1;darkOpacity=0.05;" vertex="1" parent="1">
          <mxGeometry x="440" y="996.5" width="230" height="87" as="geometry" />
        </mxCell>
        <mxCell id="LaPquhISrTEwAAFqGGU--43" value="Waiting for the Ball Speed&lt;br&gt;(from MLM)" style="ellipse;shape=cloud;whiteSpace=wrap;html=1;align=center;fontStyle=1" vertex="1" parent="1">
          <mxGeometry x="116" y="840" width="277" height="100" as="geometry" />
        </mxCell>
        <mxCell id="LaPquhISrTEwAAFqGGU--44" style="edgeStyle=orthogonalEdgeStyle;rounded=0;orthogonalLoop=1;jettySize=auto;html=1;exitX=0.5;exitY=1;exitDx=0;exitDy=0;entryX=0.5;entryY=0;entryDx=0;entryDy=0;entryPerimeter=0;strokeWidth=1;align=center;" edge="1" parent="1" source="LaPquhISrTEwAAFqGGU--45" target="LaPquhISrTEwAAFqGGU--36">
          <mxGeometry relative="1" as="geometry" />
        </mxCell>
        <mxCell id="LaPquhISrTEwAAFqGGU--45" value="InputRadarData &lt;span style=&quot;font-weight: normal&quot;&gt;&lt;i&gt;{ballSpeed, clubSpeed}&lt;/i&gt;&lt;/span&gt;" style="rounded=1;whiteSpace=wrap;html=1;align=center;fontStyle=1" vertex="1" parent="1">
          <mxGeometry x="40" y="955" width="400" height="30" as="geometry" />
        </mxCell>
        <mxCell id="LaPquhISrTEwAAFqGGU--46" style="edgeStyle=orthogonalEdgeStyle;rounded=0;orthogonalLoop=1;jettySize=auto;html=1;exitX=0.5;exitY=1;exitDx=0;exitDy=0;entryX=0.5;entryY=0;entryDx=0;entryDy=0;strokeWidth=1;align=center;" edge="1" parent="1" source="LaPquhISrTEwAAFqGGU--47" target="LaPquhISrTEwAAFqGGU--40">
          <mxGeometry relative="1" as="geometry" />
        </mxCell>
        <mxCell id="LaPquhISrTEwAAFqGGU--47" value="Compute Flight Model" style="rounded=1;whiteSpace=wrap;html=1;align=center;fontStyle=1" vertex="1" parent="1">
          <mxGeometry x="128.5" y="1130" width="210" height="40" as="geometry" />
        </mxCell>
        <mxCell id="LaPquhISrTEwAAFqGGU--48" style="edgeStyle=orthogonalEdgeStyle;rounded=0;orthogonalLoop=1;jettySize=auto;html=1;exitX=0.5;exitY=1;exitDx=0;exitDy=0;entryX=0.5;entryY=0;entryDx=0;entryDy=0;entryPerimeter=0;strokeWidth=1;align=center;" edge="1" parent="1" source="LaPquhISrTEwAAFqGGU--49" target="LaPquhISrTEwAAFqGGU--41">
          <mxGeometry relative="1" as="geometry" />
        </mxCell>
        <mxCell id="LaPquhISrTEwAAFqGGU--49" value="Generate golfResult.json" style="rounded=1;whiteSpace=wrap;html=1;align=center;fontStyle=1" vertex="1" parent="1">
          <mxGeometry x="128.5" y="1250" width="210" height="40" as="geometry" />
        </mxCell>
        <mxCell id="LaPquhISrTEwAAFqGGU--50" value="" style="endArrow=classic;html=1;dashed=1;strokeWidth=3;align=center;" edge="1" parent="1">
          <mxGeometry width="50" height="50" relative="1" as="geometry">
            <mxPoint y="895" as="sourcePoint" />
            <mxPoint x="130" y="895" as="targetPoint" />
          </mxGeometry>
        </mxCell>
        <mxCell id="LaPquhISrTEwAAFqGGU--51" value="Yes" style="text;html=1;align=center;verticalAlign=middle;resizable=0;points=[];autosize=1;" vertex="1" parent="1">
          <mxGeometry x="244.5" y="1050" width="30" height="20" as="geometry" />
        </mxCell>
        <mxCell id="LaPquhISrTEwAAFqGGU--52" value="No" style="text;html=1;align=center;verticalAlign=middle;resizable=0;points=[];autosize=1;" vertex="1" parent="1">
          <mxGeometry x="101" y="1000" width="30" height="20" as="geometry" />
        </mxCell>
        <mxCell id="LaPquhISrTEwAAFqGGU--53" value="End session" style="ellipse;whiteSpace=wrap;html=1;" vertex="1" parent="1">
          <mxGeometry x="180" y="1400" width="120" height="40" as="geometry" />
        </mxCell>
        <mxCell id="LaPquhISrTEwAAFqGGU--73" value="" style="endArrow=classic;html=1;dashed=1;dashPattern=1 1;" edge="1" parent="1">
          <mxGeometry width="50" height="50" relative="1" as="geometry">
            <mxPoint x="240" y="1380" as="sourcePoint" />
            <mxPoint x="239.5" y="1400" as="targetPoint" />
          </mxGeometry>
        </mxCell>
        <mxCell id="LaPquhISrTEwAAFqGGU--132" style="edgeStyle=orthogonalEdgeStyle;rounded=0;orthogonalLoop=1;jettySize=auto;html=1;exitX=0.5;exitY=1;exitDx=0;exitDy=0;entryX=0.5;entryY=0;entryDx=0;entryDy=0;" edge="1" parent="1" source="LaPquhISrTEwAAFqGGU--74" target="LaPquhISrTEwAAFqGGU--75">
          <mxGeometry relative="1" as="geometry" />
        </mxCell>
        <mxCell id="LaPquhISrTEwAAFqGGU--74" value="Start" style="ellipse;whiteSpace=wrap;html=1;" vertex="1" parent="1">
          <mxGeometry x="-250" y="1280" width="120" height="40" as="geometry" />
        </mxCell>
        <mxCell id="LaPquhISrTEwAAFqGGU--133" style="edgeStyle=orthogonalEdgeStyle;rounded=0;orthogonalLoop=1;jettySize=auto;html=1;exitX=0.5;exitY=1;exitDx=0;exitDy=0;" edge="1" parent="1" source="LaPquhISrTEwAAFqGGU--75" target="LaPquhISrTEwAAFqGGU--78">
          <mxGeometry relative="1" as="geometry" />
        </mxCell>
        <mxCell id="LaPquhISrTEwAAFqGGU--75" value="Prepare buffer for detection&lt;br&gt;(first 20 frames)" style="rounded=1;whiteSpace=wrap;html=1;" vertex="1" parent="1">
          <mxGeometry x="-285" y="1340" width="190" height="60" as="geometry" />
        </mxCell>
        <mxCell id="LaPquhISrTEwAAFqGGU--135" style="edgeStyle=orthogonalEdgeStyle;rounded=0;orthogonalLoop=1;jettySize=auto;html=1;exitX=0.5;exitY=1;exitDx=0;exitDy=0;entryX=0.5;entryY=0;entryDx=0;entryDy=0;" edge="1" parent="1" source="LaPquhISrTEwAAFqGGU--77" target="LaPquhISrTEwAAFqGGU--79">
          <mxGeometry relative="1" as="geometry" />
        </mxCell>
        <mxCell id="LaPquhISrTEwAAFqGGU--77" value="Define ROI (by using centroid of detected balls)" style="rounded=1;whiteSpace=wrap;html=1;" vertex="1" parent="1">
          <mxGeometry x="-250" y="1510" width="120" height="60" as="geometry" />
        </mxCell>
        <mxCell id="LaPquhISrTEwAAFqGGU--106" style="edgeStyle=orthogonalEdgeStyle;rounded=0;orthogonalLoop=1;jettySize=auto;html=1;exitX=1;exitY=0.5;exitDx=0;exitDy=0;entryX=1;entryY=0.5;entryDx=0;entryDy=0;" edge="1" parent="1" source="LaPquhISrTEwAAFqGGU--78" target="LaPquhISrTEwAAFqGGU--105">
          <mxGeometry relative="1" as="geometry">
            <Array as="points">
              <mxPoint x="20" y="1460" />
              <mxPoint x="20" y="2470" />
            </Array>
          </mxGeometry>
        </mxCell>
        <mxCell id="LaPquhISrTEwAAFqGGU--134" style="edgeStyle=orthogonalEdgeStyle;rounded=0;orthogonalLoop=1;jettySize=auto;html=1;exitX=0.5;exitY=1;exitDx=0;exitDy=0;entryX=0.5;entryY=0;entryDx=0;entryDy=0;" edge="1" parent="1" source="LaPquhISrTEwAAFqGGU--78" target="LaPquhISrTEwAAFqGGU--77">
          <mxGeometry relative="1" as="geometry" />
        </mxCell>
        <mxCell id="LaPquhISrTEwAAFqGGU--78" value="for startFrame to finishFrame" style="shape=process;whiteSpace=wrap;html=1;backgroundOutline=1;" vertex="1" parent="1">
          <mxGeometry x="-295" y="1430" width="210" height="60" as="geometry" />
        </mxCell>
        <mxCell id="LaPquhISrTEwAAFqGGU--136" style="edgeStyle=orthogonalEdgeStyle;rounded=0;orthogonalLoop=1;jettySize=auto;html=1;exitX=0.5;exitY=1;exitDx=0;exitDy=0;entryX=0.5;entryY=0;entryDx=0;entryDy=0;" edge="1" parent="1" source="LaPquhISrTEwAAFqGGU--79" target="LaPquhISrTEwAAFqGGU--80">
          <mxGeometry relative="1" as="geometry" />
        </mxCell>
        <mxCell id="LaPquhISrTEwAAFqGGU--79" value="Perform partitioning of cropped ROI&lt;br&gt;(4 partitions)" style="rounded=1;whiteSpace=wrap;html=1;" vertex="1" parent="1">
          <mxGeometry x="-250" y="1590" width="120" height="60" as="geometry" />
        </mxCell>
        <mxCell id="LaPquhISrTEwAAFqGGU--88" style="edgeStyle=orthogonalEdgeStyle;rounded=0;orthogonalLoop=1;jettySize=auto;html=1;exitX=0.5;exitY=1;exitDx=0;exitDy=0;entryX=0;entryY=0.5;entryDx=0;entryDy=0;" edge="1" parent="1" source="LaPquhISrTEwAAFqGGU--80" target="LaPquhISrTEwAAFqGGU--84">
          <mxGeometry relative="1" as="geometry" />
        </mxCell>
        <mxCell id="LaPquhISrTEwAAFqGGU--89" style="edgeStyle=orthogonalEdgeStyle;rounded=0;orthogonalLoop=1;jettySize=auto;html=1;exitX=0.5;exitY=1;exitDx=0;exitDy=0;entryX=0;entryY=0.5;entryDx=0;entryDy=0;" edge="1" parent="1" source="LaPquhISrTEwAAFqGGU--80" target="LaPquhISrTEwAAFqGGU--82">
          <mxGeometry relative="1" as="geometry" />
        </mxCell>
        <mxCell id="LaPquhISrTEwAAFqGGU--90" style="edgeStyle=orthogonalEdgeStyle;rounded=0;orthogonalLoop=1;jettySize=auto;html=1;exitX=0.5;exitY=1;exitDx=0;exitDy=0;entryX=0;entryY=0.5;entryDx=0;entryDy=0;" edge="1" parent="1" source="LaPquhISrTEwAAFqGGU--80" target="LaPquhISrTEwAAFqGGU--85">
          <mxGeometry relative="1" as="geometry" />
        </mxCell>
        <mxCell id="LaPquhISrTEwAAFqGGU--91" style="edgeStyle=orthogonalEdgeStyle;rounded=0;orthogonalLoop=1;jettySize=auto;html=1;exitX=0.5;exitY=1;exitDx=0;exitDy=0;entryX=0;entryY=0.5;entryDx=0;entryDy=0;" edge="1" parent="1" source="LaPquhISrTEwAAFqGGU--80" target="LaPquhISrTEwAAFqGGU--86">
          <mxGeometry relative="1" as="geometry" />
        </mxCell>
        <mxCell id="LaPquhISrTEwAAFqGGU--80" value="Run multithreaded ball detection for each partition&amp;nbsp;&amp;nbsp;" style="rounded=1;whiteSpace=wrap;html=1;" vertex="1" parent="1">
          <mxGeometry x="-250" y="1680" width="120" height="60" as="geometry" />
        </mxCell>
        <mxCell id="LaPquhISrTEwAAFqGGU--93" style="edgeStyle=orthogonalEdgeStyle;rounded=0;orthogonalLoop=1;jettySize=auto;html=1;exitX=1;exitY=0.5;exitDx=0;exitDy=0;entryX=1;entryY=0.5;entryDx=0;entryDy=0;" edge="1" parent="1" source="LaPquhISrTEwAAFqGGU--82" target="LaPquhISrTEwAAFqGGU--92">
          <mxGeometry relative="1" as="geometry" />
        </mxCell>
        <mxCell id="LaPquhISrTEwAAFqGGU--82" value="BallDetector#0" style="shape=process;whiteSpace=wrap;html=1;backgroundOutline=1;" vertex="1" parent="1">
          <mxGeometry x="-120" y="1754" width="105" height="26" as="geometry" />
        </mxCell>
        <mxCell id="LaPquhISrTEwAAFqGGU--94" style="edgeStyle=orthogonalEdgeStyle;rounded=0;orthogonalLoop=1;jettySize=auto;html=1;exitX=1;exitY=0.5;exitDx=0;exitDy=0;entryX=1;entryY=0.5;entryDx=0;entryDy=0;" edge="1" parent="1" source="LaPquhISrTEwAAFqGGU--84" target="LaPquhISrTEwAAFqGGU--92">
          <mxGeometry relative="1" as="geometry" />
        </mxCell>
        <mxCell id="LaPquhISrTEwAAFqGGU--84" value="BallDetector#1" style="shape=process;whiteSpace=wrap;html=1;backgroundOutline=1;" vertex="1" parent="1">
          <mxGeometry x="-120" y="1780" width="105" height="26" as="geometry" />
        </mxCell>
        <mxCell id="LaPquhISrTEwAAFqGGU--95" style="edgeStyle=orthogonalEdgeStyle;rounded=0;orthogonalLoop=1;jettySize=auto;html=1;exitX=1;exitY=0.5;exitDx=0;exitDy=0;entryX=1;entryY=0.5;entryDx=0;entryDy=0;" edge="1" parent="1" source="LaPquhISrTEwAAFqGGU--85" target="LaPquhISrTEwAAFqGGU--92">
          <mxGeometry relative="1" as="geometry" />
        </mxCell>
        <mxCell id="LaPquhISrTEwAAFqGGU--85" value="BallDetector#2" style="shape=process;whiteSpace=wrap;html=1;backgroundOutline=1;" vertex="1" parent="1">
          <mxGeometry x="-120" y="1806" width="105" height="26" as="geometry" />
        </mxCell>
        <mxCell id="LaPquhISrTEwAAFqGGU--96" style="edgeStyle=orthogonalEdgeStyle;rounded=0;orthogonalLoop=1;jettySize=auto;html=1;exitX=1;exitY=0.5;exitDx=0;exitDy=0;entryX=1;entryY=0.5;entryDx=0;entryDy=0;" edge="1" parent="1" source="LaPquhISrTEwAAFqGGU--86" target="LaPquhISrTEwAAFqGGU--92">
          <mxGeometry relative="1" as="geometry" />
        </mxCell>
        <mxCell id="LaPquhISrTEwAAFqGGU--86" value="BallDetector#3" style="shape=process;whiteSpace=wrap;html=1;backgroundOutline=1;" vertex="1" parent="1">
          <mxGeometry x="-120" y="1832" width="105" height="26" as="geometry" />
        </mxCell>
        <mxCell id="LaPquhISrTEwAAFqGGU--137" style="edgeStyle=orthogonalEdgeStyle;rounded=0;orthogonalLoop=1;jettySize=auto;html=1;exitX=0.5;exitY=1;exitDx=0;exitDy=0;entryX=0.5;entryY=0;entryDx=0;entryDy=0;" edge="1" parent="1" source="LaPquhISrTEwAAFqGGU--92" target="LaPquhISrTEwAAFqGGU--97">
          <mxGeometry relative="1" as="geometry" />
        </mxCell>
        <mxCell id="LaPquhISrTEwAAFqGGU--92" value="Collect data from all threads" style="rounded=1;whiteSpace=wrap;html=1;" vertex="1" parent="1">
          <mxGeometry x="-250" y="1870" width="120" height="60" as="geometry" />
        </mxCell>
        <mxCell id="LaPquhISrTEwAAFqGGU--138" style="edgeStyle=orthogonalEdgeStyle;rounded=0;orthogonalLoop=1;jettySize=auto;html=1;exitX=0.5;exitY=1;exitDx=0;exitDy=0;entryX=0.5;entryY=0;entryDx=0;entryDy=0;" edge="1" parent="1" source="LaPquhISrTEwAAFqGGU--97" target="LaPquhISrTEwAAFqGGU--98">
          <mxGeometry relative="1" as="geometry" />
        </mxCell>
        <mxCell id="LaPquhISrTEwAAFqGGU--97" value="Filtering of detected ball(s)" style="rounded=1;whiteSpace=wrap;html=1;" vertex="1" parent="1">
          <mxGeometry x="-250" y="1950" width="120" height="60" as="geometry" />
        </mxCell>
        <mxCell id="LaPquhISrTEwAAFqGGU--139" style="edgeStyle=orthogonalEdgeStyle;rounded=0;orthogonalLoop=1;jettySize=auto;html=1;exitX=0.5;exitY=1;exitDx=0;exitDy=0;entryX=0.5;entryY=0;entryDx=0;entryDy=0;" edge="1" parent="1" source="LaPquhISrTEwAAFqGGU--98" target="LaPquhISrTEwAAFqGGU--99">
          <mxGeometry relative="1" as="geometry" />
        </mxCell>
        <mxCell id="LaPquhISrTEwAAFqGGU--98" value="Calculate ROI&#39;s centroid" style="rounded=1;whiteSpace=wrap;html=1;" vertex="1" parent="1">
          <mxGeometry x="-250" y="2030" width="120" height="60" as="geometry" />
        </mxCell>
        <mxCell id="LaPquhISrTEwAAFqGGU--140" style="edgeStyle=orthogonalEdgeStyle;rounded=0;orthogonalLoop=1;jettySize=auto;html=1;exitX=0.5;exitY=1;exitDx=0;exitDy=0;entryX=0.5;entryY=0;entryDx=0;entryDy=0;" edge="1" parent="1" source="LaPquhISrTEwAAFqGGU--99" target="LaPquhISrTEwAAFqGGU--100">
          <mxGeometry relative="1" as="geometry" />
        </mxCell>
        <mxCell id="LaPquhISrTEwAAFqGGU--99" value="Add ball centers to tracker" style="rounded=1;whiteSpace=wrap;html=1;" vertex="1" parent="1">
          <mxGeometry x="-250" y="2103" width="120" height="60" as="geometry" />
        </mxCell>
        <mxCell id="LaPquhISrTEwAAFqGGU--141" style="edgeStyle=orthogonalEdgeStyle;rounded=0;orthogonalLoop=1;jettySize=auto;html=1;exitX=0.5;exitY=1;exitDx=0;exitDy=0;entryX=0.5;entryY=0;entryDx=0;entryDy=0;" edge="1" parent="1" source="LaPquhISrTEwAAFqGGU--100" target="LaPquhISrTEwAAFqGGU--101">
          <mxGeometry relative="1" as="geometry" />
        </mxCell>
        <mxCell id="LaPquhISrTEwAAFqGGU--100" value="Get number of moving targets&lt;br&gt;(from tracker)" style="rounded=1;whiteSpace=wrap;html=1;" vertex="1" parent="1">
          <mxGeometry x="-250" y="2180" width="120" height="60" as="geometry" />
        </mxCell>
        <mxCell id="LaPquhISrTEwAAFqGGU--102" style="edgeStyle=orthogonalEdgeStyle;rounded=0;orthogonalLoop=1;jettySize=auto;html=1;exitX=0;exitY=0.5;exitDx=0;exitDy=0;entryX=0;entryY=0.5;entryDx=0;entryDy=0;" edge="1" parent="1" source="LaPquhISrTEwAAFqGGU--101" target="LaPquhISrTEwAAFqGGU--78">
          <mxGeometry relative="1" as="geometry">
            <Array as="points">
              <mxPoint x="-310" y="2298" />
              <mxPoint x="-310" y="1460" />
            </Array>
          </mxGeometry>
        </mxCell>
        <mxCell id="LaPquhISrTEwAAFqGGU--121" style="edgeStyle=orthogonalEdgeStyle;rounded=0;orthogonalLoop=1;jettySize=auto;html=1;exitX=0.5;exitY=1;exitDx=0;exitDy=0;" edge="1" parent="1" source="LaPquhISrTEwAAFqGGU--101" target="LaPquhISrTEwAAFqGGU--107">
          <mxGeometry relative="1" as="geometry" />
        </mxCell>
        <mxCell id="LaPquhISrTEwAAFqGGU--101" value="Moving Targets Num &amp;gt; 0" style="rhombus;whiteSpace=wrap;html=1;" vertex="1" parent="1">
          <mxGeometry x="-260" y="2254" width="140" height="80" as="geometry" />
        </mxCell>
        <mxCell id="LaPquhISrTEwAAFqGGU--127" style="edgeStyle=orthogonalEdgeStyle;rounded=0;orthogonalLoop=1;jettySize=auto;html=1;exitX=0.5;exitY=1;exitDx=0;exitDy=0;entryX=0.5;entryY=0;entryDx=0;entryDy=0;" edge="1" parent="1" source="LaPquhISrTEwAAFqGGU--105" target="LaPquhISrTEwAAFqGGU--108">
          <mxGeometry relative="1" as="geometry" />
        </mxCell>
        <mxCell id="LaPquhISrTEwAAFqGGU--105" value="Get Number of static targets&amp;nbsp;&lt;br&gt;(from tracker)" style="rounded=1;whiteSpace=wrap;html=1;" vertex="1" parent="1">
          <mxGeometry x="-270" y="2440" width="120" height="60" as="geometry" />
        </mxCell>
        <mxCell id="LaPquhISrTEwAAFqGGU--119" style="edgeStyle=orthogonalEdgeStyle;rounded=0;orthogonalLoop=1;jettySize=auto;html=1;exitX=0;exitY=0.5;exitDx=0;exitDy=0;entryX=0;entryY=0.5;entryDx=0;entryDy=0;" edge="1" parent="1" source="LaPquhISrTEwAAFqGGU--107" target="LaPquhISrTEwAAFqGGU--111">
          <mxGeometry relative="1" as="geometry">
            <Array as="points">
              <mxPoint x="-260" y="2380" />
              <mxPoint x="-310" y="2380" />
              <mxPoint x="-310" y="2740" />
            </Array>
          </mxGeometry>
        </mxCell>
        <mxCell id="LaPquhISrTEwAAFqGGU--125" value="Success" style="edgeLabel;html=1;align=center;verticalAlign=middle;resizable=0;points=[];" vertex="1" connectable="0" parent="LaPquhISrTEwAAFqGGU--119">
          <mxGeometry x="-0.0551" y="-5" relative="1" as="geometry">
            <mxPoint as="offset" />
          </mxGeometry>
        </mxCell>
        <mxCell id="LaPquhISrTEwAAFqGGU--107" value="Find stable ball and extract initial ball&lt;br&gt;(from tracker)" style="rounded=1;whiteSpace=wrap;html=1;" vertex="1" parent="1">
          <mxGeometry x="-250" y="2350" width="120" height="60" as="geometry" />
        </mxCell>
        <mxCell id="LaPquhISrTEwAAFqGGU--113" style="edgeStyle=orthogonalEdgeStyle;rounded=0;orthogonalLoop=1;jettySize=auto;html=1;exitX=0.5;exitY=1;exitDx=0;exitDy=0;entryX=0.5;entryY=0;entryDx=0;entryDy=0;" edge="1" parent="1" source="LaPquhISrTEwAAFqGGU--108" target="LaPquhISrTEwAAFqGGU--110">
          <mxGeometry relative="1" as="geometry" />
        </mxCell>
        <mxCell id="LaPquhISrTEwAAFqGGU--115" style="edgeStyle=orthogonalEdgeStyle;rounded=0;orthogonalLoop=1;jettySize=auto;html=1;exitX=1;exitY=0.5;exitDx=0;exitDy=0;entryX=1;entryY=0.5;entryDx=0;entryDy=0;" edge="1" parent="1" source="LaPquhISrTEwAAFqGGU--108" target="LaPquhISrTEwAAFqGGU--111">
          <mxGeometry relative="1" as="geometry" />
        </mxCell>
        <mxCell id="LaPquhISrTEwAAFqGGU--126" value="Failed" style="edgeLabel;html=1;align=center;verticalAlign=middle;resizable=0;points=[];" vertex="1" connectable="0" parent="LaPquhISrTEwAAFqGGU--115">
          <mxGeometry x="-0.1309" y="-3" relative="1" as="geometry">
            <mxPoint as="offset" />
          </mxGeometry>
        </mxCell>
        <mxCell id="LaPquhISrTEwAAFqGGU--117" value="" style="edgeStyle=orthogonalEdgeStyle;rounded=0;orthogonalLoop=1;jettySize=auto;html=1;" edge="1" parent="1" source="LaPquhISrTEwAAFqGGU--108" target="LaPquhISrTEwAAFqGGU--111">
          <mxGeometry relative="1" as="geometry" />
        </mxCell>
        <mxCell id="LaPquhISrTEwAAFqGGU--118" value="YES" style="edgeLabel;html=1;align=center;verticalAlign=middle;resizable=0;points=[];" vertex="1" connectable="0" parent="LaPquhISrTEwAAFqGGU--117">
          <mxGeometry x="-0.8436" y="4" relative="1" as="geometry">
            <mxPoint as="offset" />
          </mxGeometry>
        </mxCell>
        <mxCell id="LaPquhISrTEwAAFqGGU--108" value="Static Targets Num &amp;gt; 0" style="rhombus;whiteSpace=wrap;html=1;" vertex="1" parent="1">
          <mxGeometry x="-280" y="2520" width="140" height="80" as="geometry" />
        </mxCell>
        <mxCell id="LaPquhISrTEwAAFqGGU--114" style="edgeStyle=orthogonalEdgeStyle;rounded=0;orthogonalLoop=1;jettySize=auto;html=1;exitX=0.5;exitY=1;exitDx=0;exitDy=0;" edge="1" parent="1" source="LaPquhISrTEwAAFqGGU--110" target="LaPquhISrTEwAAFqGGU--111">
          <mxGeometry relative="1" as="geometry" />
        </mxCell>
        <mxCell id="LaPquhISrTEwAAFqGGU--110" value="Find stable ball and extract initial ball&lt;br&gt;(from tracker)" style="rounded=1;whiteSpace=wrap;html=1;" vertex="1" parent="1">
          <mxGeometry x="-270" y="2630" width="120" height="60" as="geometry" />
        </mxCell>
        <mxCell id="LaPquhISrTEwAAFqGGU--111" value="Finish" style="ellipse;whiteSpace=wrap;html=1;" vertex="1" parent="1">
          <mxGeometry x="-270" y="2720" width="120" height="40" as="geometry" />
        </mxCell>
        <mxCell id="LaPquhISrTEwAAFqGGU--123" value="NO" style="text;html=1;align=center;verticalAlign=middle;resizable=0;points=[];autosize=1;" vertex="1" parent="1">
          <mxGeometry x="-305" y="2280" width="30" height="20" as="geometry" />
        </mxCell>
        <mxCell id="LaPquhISrTEwAAFqGGU--124" value="YES" style="text;html=1;align=center;verticalAlign=middle;resizable=0;points=[];autosize=1;" vertex="1" parent="1">
          <mxGeometry x="-192" y="2332" width="40" height="20" as="geometry" />
        </mxCell>
        <mxCell id="LaPquhISrTEwAAFqGGU--128" value="NO" style="text;html=1;align=center;verticalAlign=middle;resizable=0;points=[];autosize=1;" vertex="1" parent="1">
          <mxGeometry x="-150" y="2540" width="30" height="20" as="geometry" />
        </mxCell>
        <mxCell id="LaPquhISrTEwAAFqGGU--131" value="Success" style="edgeLabel;html=1;align=center;verticalAlign=middle;resizable=0;points=[];" vertex="1" connectable="0" parent="1">
          <mxGeometry x="-210" y="2700" as="geometry" />
        </mxCell>
        <mxCell id="LaPquhISrTEwAAFqGGU--143" style="edgeStyle=orthogonalEdgeStyle;rounded=0;orthogonalLoop=1;jettySize=auto;html=1;exitX=0.5;exitY=1;exitDx=0;exitDy=0;entryX=0.5;entryY=0;entryDx=0;entryDy=0;" edge="1" parent="1" source="LaPquhISrTEwAAFqGGU--144" target="LaPquhISrTEwAAFqGGU--146">
          <mxGeometry relative="1" as="geometry" />
        </mxCell>
        <mxCell id="LaPquhISrTEwAAFqGGU--144" value="Start" style="ellipse;whiteSpace=wrap;html=1;" vertex="1" parent="1">
          <mxGeometry x="334.5" y="1480" width="120" height="40" as="geometry" />
        </mxCell>
        <mxCell id="LaPquhISrTEwAAFqGGU--145" style="edgeStyle=orthogonalEdgeStyle;rounded=0;orthogonalLoop=1;jettySize=auto;html=1;exitX=0.5;exitY=1;exitDx=0;exitDy=0;" edge="1" parent="1" source="LaPquhISrTEwAAFqGGU--146" target="LaPquhISrTEwAAFqGGU--151">
          <mxGeometry relative="1" as="geometry" />
        </mxCell>
        <mxCell id="LaPquhISrTEwAAFqGGU--146" value="Prepare buffer for detection&lt;br&gt;(first 20 frames)" style="rounded=1;whiteSpace=wrap;html=1;" vertex="1" parent="1">
          <mxGeometry x="299.5" y="1540" width="190" height="60" as="geometry" />
        </mxCell>
        <mxCell id="LaPquhISrTEwAAFqGGU--147" style="edgeStyle=orthogonalEdgeStyle;rounded=0;orthogonalLoop=1;jettySize=auto;html=1;exitX=0.5;exitY=1;exitDx=0;exitDy=0;entryX=0.5;entryY=0;entryDx=0;entryDy=0;" edge="1" parent="1" source="LaPquhISrTEwAAFqGGU--148" target="LaPquhISrTEwAAFqGGU--153">
          <mxGeometry relative="1" as="geometry" />
        </mxCell>
        <mxCell id="LaPquhISrTEwAAFqGGU--148" value="Define ROI (by using centroid of detected balls)" style="rounded=1;whiteSpace=wrap;html=1;" vertex="1" parent="1">
          <mxGeometry x="334.5" y="1710" width="120" height="60" as="geometry" />
        </mxCell>
        <mxCell id="LaPquhISrTEwAAFqGGU--149" style="edgeStyle=orthogonalEdgeStyle;rounded=0;orthogonalLoop=1;jettySize=auto;html=1;exitX=1;exitY=0.5;exitDx=0;exitDy=0;entryX=1;entryY=0.5;entryDx=0;entryDy=0;" edge="1" parent="1" source="LaPquhISrTEwAAFqGGU--151" target="LaPquhISrTEwAAFqGGU--181">
          <mxGeometry relative="1" as="geometry">
            <Array as="points">
              <mxPoint x="604.5" y="1660" />
              <mxPoint x="604.5" y="2670" />
            </Array>
          </mxGeometry>
        </mxCell>
        <mxCell id="LaPquhISrTEwAAFqGGU--150" style="edgeStyle=orthogonalEdgeStyle;rounded=0;orthogonalLoop=1;jettySize=auto;html=1;exitX=0.5;exitY=1;exitDx=0;exitDy=0;entryX=0.5;entryY=0;entryDx=0;entryDy=0;" edge="1" parent="1" source="LaPquhISrTEwAAFqGGU--151" target="LaPquhISrTEwAAFqGGU--148">
          <mxGeometry relative="1" as="geometry" />
        </mxCell>
        <mxCell id="LaPquhISrTEwAAFqGGU--151" value="for startFrame to finishFrame" style="shape=process;whiteSpace=wrap;html=1;backgroundOutline=1;" vertex="1" parent="1">
          <mxGeometry x="289.5" y="1630" width="210" height="60" as="geometry" />
        </mxCell>
        <mxCell id="LaPquhISrTEwAAFqGGU--152" style="edgeStyle=orthogonalEdgeStyle;rounded=0;orthogonalLoop=1;jettySize=auto;html=1;exitX=0.5;exitY=1;exitDx=0;exitDy=0;entryX=0.5;entryY=0;entryDx=0;entryDy=0;" edge="1" parent="1" source="LaPquhISrTEwAAFqGGU--153" target="LaPquhISrTEwAAFqGGU--158">
          <mxGeometry relative="1" as="geometry" />
        </mxCell>
        <mxCell id="LaPquhISrTEwAAFqGGU--153" value="Perform partitioning of cropped ROI&lt;br&gt;(4 partitions)" style="rounded=1;whiteSpace=wrap;html=1;" vertex="1" parent="1">
          <mxGeometry x="334.5" y="1790" width="120" height="60" as="geometry" />
        </mxCell>
        <mxCell id="LaPquhISrTEwAAFqGGU--154" style="edgeStyle=orthogonalEdgeStyle;rounded=0;orthogonalLoop=1;jettySize=auto;html=1;exitX=0.5;exitY=1;exitDx=0;exitDy=0;entryX=0;entryY=0.5;entryDx=0;entryDy=0;" edge="1" parent="1" source="LaPquhISrTEwAAFqGGU--158" target="LaPquhISrTEwAAFqGGU--162">
          <mxGeometry relative="1" as="geometry" />
        </mxCell>
        <mxCell id="LaPquhISrTEwAAFqGGU--155" style="edgeStyle=orthogonalEdgeStyle;rounded=0;orthogonalLoop=1;jettySize=auto;html=1;exitX=0.5;exitY=1;exitDx=0;exitDy=0;entryX=0;entryY=0.5;entryDx=0;entryDy=0;" edge="1" parent="1" source="LaPquhISrTEwAAFqGGU--158" target="LaPquhISrTEwAAFqGGU--160">
          <mxGeometry relative="1" as="geometry" />
        </mxCell>
        <mxCell id="LaPquhISrTEwAAFqGGU--156" style="edgeStyle=orthogonalEdgeStyle;rounded=0;orthogonalLoop=1;jettySize=auto;html=1;exitX=0.5;exitY=1;exitDx=0;exitDy=0;entryX=0;entryY=0.5;entryDx=0;entryDy=0;" edge="1" parent="1" source="LaPquhISrTEwAAFqGGU--158" target="LaPquhISrTEwAAFqGGU--164">
          <mxGeometry relative="1" as="geometry" />
        </mxCell>
        <mxCell id="LaPquhISrTEwAAFqGGU--157" style="edgeStyle=orthogonalEdgeStyle;rounded=0;orthogonalLoop=1;jettySize=auto;html=1;exitX=0.5;exitY=1;exitDx=0;exitDy=0;entryX=0;entryY=0.5;entryDx=0;entryDy=0;" edge="1" parent="1" source="LaPquhISrTEwAAFqGGU--158" target="LaPquhISrTEwAAFqGGU--166">
          <mxGeometry relative="1" as="geometry" />
        </mxCell>
        <mxCell id="LaPquhISrTEwAAFqGGU--158" value="Run multithreaded ball detection for each partition&amp;nbsp;&amp;nbsp;" style="rounded=1;whiteSpace=wrap;html=1;" vertex="1" parent="1">
          <mxGeometry x="334.5" y="1880" width="120" height="60" as="geometry" />
        </mxCell>
        <mxCell id="LaPquhISrTEwAAFqGGU--159" style="edgeStyle=orthogonalEdgeStyle;rounded=0;orthogonalLoop=1;jettySize=auto;html=1;exitX=1;exitY=0.5;exitDx=0;exitDy=0;entryX=1;entryY=0.5;entryDx=0;entryDy=0;" edge="1" parent="1" source="LaPquhISrTEwAAFqGGU--160" target="LaPquhISrTEwAAFqGGU--168">
          <mxGeometry relative="1" as="geometry" />
        </mxCell>
        <mxCell id="LaPquhISrTEwAAFqGGU--160" value="BallDetector#0" style="shape=process;whiteSpace=wrap;html=1;backgroundOutline=1;" vertex="1" parent="1">
          <mxGeometry x="464.5" y="1954" width="105" height="26" as="geometry" />
        </mxCell>
        <mxCell id="LaPquhISrTEwAAFqGGU--161" style="edgeStyle=orthogonalEdgeStyle;rounded=0;orthogonalLoop=1;jettySize=auto;html=1;exitX=1;exitY=0.5;exitDx=0;exitDy=0;entryX=1;entryY=0.5;entryDx=0;entryDy=0;" edge="1" parent="1" source="LaPquhISrTEwAAFqGGU--162" target="LaPquhISrTEwAAFqGGU--168">
          <mxGeometry relative="1" as="geometry" />
        </mxCell>
        <mxCell id="LaPquhISrTEwAAFqGGU--162" value="BallDetector#1" style="shape=process;whiteSpace=wrap;html=1;backgroundOutline=1;" vertex="1" parent="1">
          <mxGeometry x="464.5" y="1980" width="105" height="26" as="geometry" />
        </mxCell>
        <mxCell id="LaPquhISrTEwAAFqGGU--163" style="edgeStyle=orthogonalEdgeStyle;rounded=0;orthogonalLoop=1;jettySize=auto;html=1;exitX=1;exitY=0.5;exitDx=0;exitDy=0;entryX=1;entryY=0.5;entryDx=0;entryDy=0;" edge="1" parent="1" source="LaPquhISrTEwAAFqGGU--164" target="LaPquhISrTEwAAFqGGU--168">
          <mxGeometry relative="1" as="geometry" />
        </mxCell>
        <mxCell id="LaPquhISrTEwAAFqGGU--164" value="BallDetector#2" style="shape=process;whiteSpace=wrap;html=1;backgroundOutline=1;" vertex="1" parent="1">
          <mxGeometry x="464.5" y="2006" width="105" height="26" as="geometry" />
        </mxCell>
        <mxCell id="LaPquhISrTEwAAFqGGU--165" style="edgeStyle=orthogonalEdgeStyle;rounded=0;orthogonalLoop=1;jettySize=auto;html=1;exitX=1;exitY=0.5;exitDx=0;exitDy=0;entryX=1;entryY=0.5;entryDx=0;entryDy=0;" edge="1" parent="1" source="LaPquhISrTEwAAFqGGU--166" target="LaPquhISrTEwAAFqGGU--168">
          <mxGeometry relative="1" as="geometry" />
        </mxCell>
        <mxCell id="LaPquhISrTEwAAFqGGU--166" value="BallDetector#3" style="shape=process;whiteSpace=wrap;html=1;backgroundOutline=1;" vertex="1" parent="1">
          <mxGeometry x="464.5" y="2032" width="105" height="26" as="geometry" />
        </mxCell>
        <mxCell id="LaPquhISrTEwAAFqGGU--167" style="edgeStyle=orthogonalEdgeStyle;rounded=0;orthogonalLoop=1;jettySize=auto;html=1;exitX=0.5;exitY=1;exitDx=0;exitDy=0;entryX=0.5;entryY=0;entryDx=0;entryDy=0;" edge="1" parent="1" source="LaPquhISrTEwAAFqGGU--168" target="LaPquhISrTEwAAFqGGU--170">
          <mxGeometry relative="1" as="geometry" />
        </mxCell>
        <mxCell id="LaPquhISrTEwAAFqGGU--168" value="Collect data from all threads" style="rounded=1;whiteSpace=wrap;html=1;" vertex="1" parent="1">
          <mxGeometry x="334.5" y="2070" width="120" height="60" as="geometry" />
        </mxCell>
        <mxCell id="LaPquhISrTEwAAFqGGU--169" style="edgeStyle=orthogonalEdgeStyle;rounded=0;orthogonalLoop=1;jettySize=auto;html=1;exitX=0.5;exitY=1;exitDx=0;exitDy=0;entryX=0.5;entryY=0;entryDx=0;entryDy=0;" edge="1" parent="1" source="LaPquhISrTEwAAFqGGU--170" target="LaPquhISrTEwAAFqGGU--172">
          <mxGeometry relative="1" as="geometry" />
        </mxCell>
        <mxCell id="LaPquhISrTEwAAFqGGU--170" value="Filtering of detected ball(s)" style="rounded=1;whiteSpace=wrap;html=1;" vertex="1" parent="1">
          <mxGeometry x="334.5" y="2150" width="120" height="60" as="geometry" />
        </mxCell>
        <mxCell id="LaPquhISrTEwAAFqGGU--171" style="edgeStyle=orthogonalEdgeStyle;rounded=0;orthogonalLoop=1;jettySize=auto;html=1;exitX=0.5;exitY=1;exitDx=0;exitDy=0;entryX=0.5;entryY=0;entryDx=0;entryDy=0;" edge="1" parent="1" source="LaPquhISrTEwAAFqGGU--172" target="LaPquhISrTEwAAFqGGU--174">
          <mxGeometry relative="1" as="geometry" />
        </mxCell>
        <mxCell id="LaPquhISrTEwAAFqGGU--172" value="Calculate ROI&#39;s centroid" style="rounded=1;whiteSpace=wrap;html=1;" vertex="1" parent="1">
          <mxGeometry x="334.5" y="2230" width="120" height="60" as="geometry" />
        </mxCell>
        <mxCell id="LaPquhISrTEwAAFqGGU--173" style="edgeStyle=orthogonalEdgeStyle;rounded=0;orthogonalLoop=1;jettySize=auto;html=1;exitX=0.5;exitY=1;exitDx=0;exitDy=0;entryX=0.5;entryY=0;entryDx=0;entryDy=0;" edge="1" parent="1" source="LaPquhISrTEwAAFqGGU--174" target="LaPquhISrTEwAAFqGGU--176">
          <mxGeometry relative="1" as="geometry" />
        </mxCell>
        <mxCell id="LaPquhISrTEwAAFqGGU--174" value="Add ball centers to tracker" style="rounded=1;whiteSpace=wrap;html=1;" vertex="1" parent="1">
          <mxGeometry x="334.5" y="2303" width="120" height="60" as="geometry" />
        </mxCell>
        <mxCell id="LaPquhISrTEwAAFqGGU--175" style="edgeStyle=orthogonalEdgeStyle;rounded=0;orthogonalLoop=1;jettySize=auto;html=1;exitX=0.5;exitY=1;exitDx=0;exitDy=0;entryX=0.5;entryY=0;entryDx=0;entryDy=0;" edge="1" parent="1" source="LaPquhISrTEwAAFqGGU--176" target="LaPquhISrTEwAAFqGGU--179">
          <mxGeometry relative="1" as="geometry" />
        </mxCell>
        <mxCell id="LaPquhISrTEwAAFqGGU--176" value="Get number of moving targets&lt;br&gt;(from tracker)" style="rounded=1;whiteSpace=wrap;html=1;" vertex="1" parent="1">
          <mxGeometry x="334.5" y="2380" width="120" height="60" as="geometry" />
        </mxCell>
        <mxCell id="LaPquhISrTEwAAFqGGU--177" style="edgeStyle=orthogonalEdgeStyle;rounded=0;orthogonalLoop=1;jettySize=auto;html=1;exitX=0;exitY=0.5;exitDx=0;exitDy=0;entryX=0;entryY=0.5;entryDx=0;entryDy=0;" edge="1" parent="1" source="LaPquhISrTEwAAFqGGU--179" target="LaPquhISrTEwAAFqGGU--151">
          <mxGeometry relative="1" as="geometry">
            <Array as="points">
              <mxPoint x="274.5" y="2498" />
              <mxPoint x="274.5" y="1660" />
            </Array>
          </mxGeometry>
        </mxCell>
        <mxCell id="LaPquhISrTEwAAFqGGU--178" style="edgeStyle=orthogonalEdgeStyle;rounded=0;orthogonalLoop=1;jettySize=auto;html=1;exitX=0.5;exitY=1;exitDx=0;exitDy=0;" edge="1" parent="1" source="LaPquhISrTEwAAFqGGU--179" target="LaPquhISrTEwAAFqGGU--184">
          <mxGeometry relative="1" as="geometry" />
        </mxCell>
        <mxCell id="LaPquhISrTEwAAFqGGU--179" value="Moving Targets Num &amp;gt; 0&lt;br&gt;&amp;amp;&amp;amp; &lt;br&gt;Moving Target Count &amp;gt;=2" style="rhombus;whiteSpace=wrap;html=1;" vertex="1" parent="1">
          <mxGeometry x="324.5" y="2454" width="140" height="80" as="geometry" />
        </mxCell>
        <mxCell id="LaPquhISrTEwAAFqGGU--180" style="edgeStyle=orthogonalEdgeStyle;rounded=0;orthogonalLoop=1;jettySize=auto;html=1;exitX=0.5;exitY=1;exitDx=0;exitDy=0;entryX=0.5;entryY=0;entryDx=0;entryDy=0;" edge="1" parent="1" source="LaPquhISrTEwAAFqGGU--181" target="LaPquhISrTEwAAFqGGU--190">
          <mxGeometry relative="1" as="geometry" />
        </mxCell>
        <mxCell id="LaPquhISrTEwAAFqGGU--181" value="Get Number of static targets&amp;nbsp;&lt;br&gt;(from tracker)" style="rounded=1;whiteSpace=wrap;html=1;" vertex="1" parent="1">
          <mxGeometry x="314.5" y="2640" width="120" height="60" as="geometry" />
        </mxCell>
        <mxCell id="LaPquhISrTEwAAFqGGU--208" style="edgeStyle=orthogonalEdgeStyle;rounded=0;orthogonalLoop=1;jettySize=auto;html=1;exitX=0;exitY=0.5;exitDx=0;exitDy=0;" edge="1" parent="1" source="LaPquhISrTEwAAFqGGU--184" target="LaPquhISrTEwAAFqGGU--198">
          <mxGeometry relative="1" as="geometry" />
        </mxCell>
        <mxCell id="LaPquhISrTEwAAFqGGU--184" value="Find stable ball and extract initial ball and all predictions&lt;br&gt;(from tracker)" style="rounded=1;whiteSpace=wrap;html=1;" vertex="1" parent="1">
          <mxGeometry x="334.5" y="2550" width="120" height="60" as="geometry" />
        </mxCell>
        <mxCell id="LaPquhISrTEwAAFqGGU--185" style="edgeStyle=orthogonalEdgeStyle;rounded=0;orthogonalLoop=1;jettySize=auto;html=1;entryX=0.5;entryY=0;entryDx=0;entryDy=0;" edge="1" parent="1" source="LaPquhISrTEwAAFqGGU--190" target="LaPquhISrTEwAAFqGGU--193">
          <mxGeometry relative="1" as="geometry">
            <mxPoint x="374.5" y="2830" as="targetPoint" />
          </mxGeometry>
        </mxCell>
        <mxCell id="LaPquhISrTEwAAFqGGU--205" style="edgeStyle=orthogonalEdgeStyle;rounded=0;orthogonalLoop=1;jettySize=auto;html=1;exitX=1;exitY=0.5;exitDx=0;exitDy=0;entryX=0;entryY=0.5;entryDx=0;entryDy=0;" edge="1" parent="1" source="LaPquhISrTEwAAFqGGU--190" target="LaPquhISrTEwAAFqGGU--202">
          <mxGeometry relative="1" as="geometry" />
        </mxCell>
        <mxCell id="LaPquhISrTEwAAFqGGU--190" value="Static Targets Num &amp;gt; 0" style="rhombus;whiteSpace=wrap;html=1;" vertex="1" parent="1">
          <mxGeometry x="304.5" y="2720" width="140" height="80" as="geometry" />
        </mxCell>
        <mxCell id="LaPquhISrTEwAAFqGGU--193" value="Finish" style="ellipse;whiteSpace=wrap;html=1;" vertex="1" parent="1">
          <mxGeometry x="314.5" y="2920" width="120" height="40" as="geometry" />
        </mxCell>
        <mxCell id="LaPquhISrTEwAAFqGGU--194" value="NO" style="text;html=1;align=center;verticalAlign=middle;resizable=0;points=[];autosize=1;" vertex="1" parent="1">
          <mxGeometry x="279.5" y="2480" width="30" height="20" as="geometry" />
        </mxCell>
        <mxCell id="LaPquhISrTEwAAFqGGU--195" value="YES" style="text;html=1;align=center;verticalAlign=middle;resizable=0;points=[];autosize=1;" vertex="1" parent="1">
          <mxGeometry x="392.5" y="2532" width="40" height="20" as="geometry" />
        </mxCell>
        <mxCell id="LaPquhISrTEwAAFqGGU--196" value="NO" style="text;html=1;align=center;verticalAlign=middle;resizable=0;points=[];autosize=1;" vertex="1" parent="1">
          <mxGeometry x="444.5" y="2733" width="30" height="20" as="geometry" />
        </mxCell>
        <mxCell id="LaPquhISrTEwAAFqGGU--207" style="edgeStyle=orthogonalEdgeStyle;rounded=0;orthogonalLoop=1;jettySize=auto;html=1;exitX=0.5;exitY=1;exitDx=0;exitDy=0;entryX=0.5;entryY=0;entryDx=0;entryDy=0;" edge="1" parent="1" source="LaPquhISrTEwAAFqGGU--198" target="LaPquhISrTEwAAFqGGU--199">
          <mxGeometry relative="1" as="geometry" />
        </mxCell>
        <mxCell id="LaPquhISrTEwAAFqGGU--198" value="Perform line fitting, get inliers" style="rounded=1;whiteSpace=wrap;html=1;" vertex="1" parent="1">
          <mxGeometry x="151.5" y="2550" width="120" height="60" as="geometry" />
        </mxCell>
        <mxCell id="LaPquhISrTEwAAFqGGU--209" style="edgeStyle=orthogonalEdgeStyle;rounded=0;orthogonalLoop=1;jettySize=auto;html=1;exitX=0.5;exitY=1;exitDx=0;exitDy=0;entryX=0;entryY=0.5;entryDx=0;entryDy=0;" edge="1" parent="1" source="LaPquhISrTEwAAFqGGU--199" target="LaPquhISrTEwAAFqGGU--193">
          <mxGeometry relative="1" as="geometry" />
        </mxCell>
        <mxCell id="LaPquhISrTEwAAFqGGU--199" value="Correct detected &lt;br&gt;ball centers" style="rounded=1;whiteSpace=wrap;html=1;" vertex="1" parent="1">
          <mxGeometry x="152" y="2630" width="120" height="60" as="geometry" />
        </mxCell>
        <mxCell id="LaPquhISrTEwAAFqGGU--200" value="Fail" style="text;html=1;align=center;verticalAlign=middle;resizable=0;points=[];autosize=1;" vertex="1" parent="1">
          <mxGeometry x="359.5" y="2850" width="30" height="20" as="geometry" />
        </mxCell>
        <mxCell id="LaPquhISrTEwAAFqGGU--206" style="edgeStyle=orthogonalEdgeStyle;rounded=0;orthogonalLoop=1;jettySize=auto;html=1;exitX=0.5;exitY=1;exitDx=0;exitDy=0;entryX=0.5;entryY=0;entryDx=0;entryDy=0;" edge="1" parent="1" source="LaPquhISrTEwAAFqGGU--202" target="LaPquhISrTEwAAFqGGU--203">
          <mxGeometry relative="1" as="geometry" />
        </mxCell>
        <mxCell id="LaPquhISrTEwAAFqGGU--202" value="Perform ball detection &lt;br&gt;from&amp;nbsp; 0 to startFrame-1&amp;nbsp;" style="shape=process;whiteSpace=wrap;html=1;backgroundOutline=1;" vertex="1" parent="1">
          <mxGeometry x="500" y="2730" width="210" height="60" as="geometry" />
        </mxCell>
        <mxCell id="LaPquhISrTEwAAFqGGU--204" style="edgeStyle=orthogonalEdgeStyle;rounded=0;orthogonalLoop=1;jettySize=auto;html=1;exitX=0.5;exitY=1;exitDx=0;exitDy=0;entryX=0.5;entryY=0;entryDx=0;entryDy=0;" edge="1" parent="1" source="LaPquhISrTEwAAFqGGU--203" target="LaPquhISrTEwAAFqGGU--198">
          <mxGeometry relative="1" as="geometry">
            <Array as="points">
              <mxPoint x="600" y="2990" />
              <mxPoint x="110" y="2990" />
              <mxPoint x="110" y="2530" />
              <mxPoint x="212" y="2530" />
            </Array>
          </mxGeometry>
        </mxCell>
        <mxCell id="LaPquhISrTEwAAFqGGU--203" value="Merge detected balls from current and previous ball detction results" style="rounded=1;whiteSpace=wrap;html=1;" vertex="1" parent="1">
          <mxGeometry x="490" y="2810" width="220" height="60" as="geometry" />
        </mxCell>
        <mxCell id="LaPquhISrTEwAAFqGGU--210" value="Success" style="text;html=1;align=center;verticalAlign=middle;resizable=0;points=[];autosize=1;" vertex="1" parent="1">
          <mxGeometry x="181.5" y="2800" width="60" height="20" as="geometry" />
        </mxCell>
      </root>
    </mxGraphModel>
  </diagram>
</mxfile>
